<?xml version="1.0" encoding="UTF-8" standalone="no"?>
<!-- Created with Inkscape (http://www.inkscape.org/) -->

<svg
   version="1.1"
   id="svg1"
   width="1452.0001"
   height="864.63635"
   viewBox="0 0 1452.0001 864.63635"
   xmlns="http://www.w3.org/2000/svg"
   xmlns:svg="http://www.w3.org/2000/svg">
  <defs
     id="defs1" />
  <g
     id="g1"
     transform="translate(-42.695994,-33.103545)">
    <path
       style="fill:#000000"
       d="m 809.10516,896.60055 c 1.07385,-0.6234 5.58956,-1.0198 10.32097,-0.906 5.30243,0.1275 8.94004,-0.2361 9.84084,-0.9837 0.9569,-0.7942 1.84199,-0.8602 2.67902,-0.1999 0.6875,0.5424 1.92503,1.0084 2.75003,1.0356 21.6297,0.7136 17.4333,2.2262 -6.08336,2.1928 -16.16731,-0.023 -20.94872,-0.3021 -19.5075,-1.1388 z M 1064.5409,793.29349 c -0.3604,-0.36715 -3.9604,-1.04424 -8,-1.50466 -16.8036,-1.91519 -26.8678,-6.83576 -38.7566,-18.94871 -10.6211,-10.82127 -11.0882,-11.38599 -11.0882,-13.40428 0,-0.91636 -0.45,-1.66611 -1,-1.66611 -0.55,0 -1,-0.65264 -1,-1.45031 0,-0.79767 -0.5855,-1.81017 -1.301,-2.25 -1.3594,-0.83555 -10.69904,-14.5733 -10.69904,-15.73723 0,-0.36771 -1.125,-2.32415 -2.5,-4.34765 -1.375,-2.02349 -2.5,-4.48874 -2.5,-5.47833 0,-0.98959 -0.675,-2.05827 -1.5,-2.37485 -0.825,-0.31659 -1.5,-1.14578 -1.5,-1.84267 0,-0.69688 -1.2308,-3.46123 -2.7352,-6.14301 -3.0031,-5.3537 -7.5122,-15.28711 -12.8689,-28.34955 -1.9112,-4.66048 -4.5822,-10.45465 -5.9355,-12.87595 -1.3532,-2.4213 -2.4604,-5.29017 -2.4604,-6.37527 0,-1.08511 -0.6357,-3.39093 -1.4126,-5.12405 -1.8242,-4.0695 -5.4598,-14.16911 -6.7139,-18.65113 -0.5386,-1.925 -1.5743,-4.85 -2.3016,-6.5 -1.4459,-3.28056 -6.2895,-18.66718 -9.6012,-30.5 -1.1544,-4.125 -2.7451,-9.60955 -3.5349,-12.1879 -0.7897,-2.57834 -1.4358,-5.64542 -1.4358,-6.81574 0,-1.17031 -0.5218,-3.10273 -1.1595,-4.29426 -1.5624,-2.91948 -4.8519,-15.87477 -4.2698,-16.81656 0.9638,-1.55945 -2.0243,-13.88554 -3.3662,-13.88554 -0.8071,0 -1.1326,-0.69545 -0.8191,-1.75 0.2862,-0.9625 0.078,-4.675 -0.4614,-8.25 -0.5399,-3.575 -1.1528,-7.625 -1.362,-9 -0.2092,-1.375 -0.8639,-4.525 -1.455,-7 -3.356,-14.05299 -7.3423,-37.57074 -7.7751,-45.8707 -0.2746,-5.26541 -0.9324,-10.38284 -1.4619,-11.37205 -0.5294,-0.98922 -0.7291,-2.17622 -0.4439,-2.63778 0.2853,-0.46156 -0.302,-5.8203 -1.3051,-11.9083 -1.4324,-8.69423 -2.3852,-11.78163 -4.441,-14.39014 -1.4394,-1.82657 -4.0938,-5.25242 -5.89864,-7.61301 -1.8048,-2.36059 -4.7439,-6.01513 -6.5314,-8.1212 -1.7875,-2.10607 -3.25,-4.70175 -3.25,-5.76818 0,-1.06643 -1.2824,-3.26189 -2.8498,-4.8788 -2.5725,-2.65384 -4.9336,-6.89245 -6.5118,-11.68984 -0.3166,-0.9625 -1.1606,-1.75 -1.8754,-1.75 -0.7149,0 -2.0671,-1.2375 -3.0048,-2.75 l -1.705,-2.75 -0.04,4 c -0.022,2.2 -0.2874,4.91994 -0.5895,6.0443 -0.4596,1.71092 -0.091,2.03708 2.2637,2 l 2.8129,-0.0443 0.1588,7.5 c 0.087,4.125 -0.043,6.6 -0.2889,5.5 -0.2463,-1.1 -0.6802,-3.07759 -0.9642,-4.39464 -1.0308,-4.7796 -2.4732,-0.53056 -1.7908,5.27531 0.4971,4.22937 1.0266,5.58714 2.0288,5.20253 0.746,-0.28624 1.3563,-0.12205 1.3563,0.36485 0,0.48691 -0.556,1.07061 -1.2355,1.29712 -0.9807,0.32688 -0.9807,1.64561 0,6.39353 1.4592,7.06501 1.6161,14.3613 0.3088,14.3613 -0.5097,0 -1.1325,-0.7875 -1.384,-1.75 -0.2515,-0.9625 -0.5095,0.1625 -0.5733,2.5 -0.064,2.3375 0.334,4.25 0.884,4.25 1.145,0 1.3926,4.98335 0.25,5.0318 -0.4125,0.0175 -1.6478,0.71026 -2.7452,1.53949 -1.4119,1.06698 -1.6485,1.7219 -0.8093,2.24053 2.3026,1.42311 3.6145,20.42507 3.6031,52.18818 -0.021,58.46125 -0.9365,134.60496 -1.6316,135.72974 -0.3797,0.6144 -0.8397,28.13343 -1.0222,61.1534 l -0.3318,60.0363 -2.4065,3.51587 c -3.3417,4.88215 -7.8276,7.21249 -10.8107,5.61598 -1.8818,-1.00709 -2.5862,-0.91752 -4.1885,0.53257 -2.1477,1.94365 -8.6955,2.13506 -12.0279,0.35159 -1.6391,-0.87719 -1.8765,-1.65859 -1.2927,-4.25498 0.8164,-3.63103 0.8139,-3.68562 -0.4219,-9.48845 -0.8342,-3.91679 -0.7078,-4.4454 1.3921,-5.82128 1.6553,-1.08462 3.5544,-1.32663 6.7039,-0.85434 4.0284,0.6041 4.544,0.43039 6.1933,-2.08668 l 1.799,-2.74564 1.8194,2.40796 c 1.4564,1.92749 2.0697,2.15854 3.0735,1.15796 2.5951,-2.58683 4.121,-1.4869 3.3844,2.43957 -0.6342,3.38056 -0.5511,3.57244 0.9929,2.29109 2.7826,-2.30936 3.6753,-6.12618 2.9777,-12.73066 -0.4673,-4.42337 -1.0754,-6.25 -2.0806,-6.25 -0.7813,0 -1.4239,-0.7875 -1.428,-1.75 -0.015,-3.46588 -1.9478,-18.53866 -2.4403,-19.0312 -0.9898,-0.98982 -3.5508,2.06532 -3.4818,4.15364 0.068,2.07516 0.091,2.0783 0.9297,0.12756 0.6028,-1.40294 0.9053,-1.5522 1.013,-0.5 0.085,0.825 0.2818,2.4 0.4384,3.5 2.204,15.48185 1.5209,18.4114 -2.038,8.73966 -2.349,-6.3837 -3.1472,-7.07 -4.3978,-3.78086 -0.7738,2.03531 -0.7414,3.16672 0.1205,4.20522 0.8832,1.06417 0.8928,1.70709 0.038,2.56169 -0.6275,0.62753 -1.3351,0.94596 -1.5725,0.70762 -0.2373,-0.23833 -0.5701,-5.5335 -0.7396,-11.76704 -0.2946,-10.8339 -0.383,-11.24137 -2.0036,-9.24004 l -1.6953,2.09367 -0.5421,-2.75996 c -0.6778,-3.45128 -0.7459,-20.67111 -0.1867,-47.25996 0.2371,-11.275 0.7278,-51.1 1.0904,-88.5 0.3627,-37.4 0.8319,-72.95 1.0427,-79 0.2108,-6.05 0.5807,-43.95402 0.822,-84.23115 0.3471,-57.93697 0.167,-74.33153 -0.8623,-78.5 -1.1634,-4.71177 -8.6051,-27.15962 -10.6975,-32.26885 -1.9508,-4.76355 -8.4382,-28.18147 -16.20608,-58.5 -3.62669,-14.15517 -7.7693,-32.96309 -8.2597,-37.5 -0.23781,-2.2 -0.64998,-4.62009 -0.91594,-5.37799 -1.03947,-2.9621 -4.77065,-23.10869 -6.78246,-36.62201 -0.76361,-5.12916 -1.74913,-10.8148 -2.6867,-15.5 -1.00783,-5.03632 -1.36105,-7.56007 -3.35905,-24 -2.16069,-17.77867 -1.13711,-31.62276 3.00818,-40.685931 1.30456,-2.85226 2.38614,-5.55226 2.40352,-6 0.0619,-1.59324 4.89933,-6.31407 6.47009,-6.31407 0.8787,0 2.97785,0.71373 4.66478,1.58608 1.68693,0.87235 3.85067,1.38119 4.80831,1.13076 0.95763,-0.25042 2.59257,0.0309 3.63319,0.62515 1.04062,0.59425 2.39662,1.16209 3.01336,1.26186 2.0686,0.33465 6.3672,3.60571 5.8462,4.44873 -0.4639,0.75053 5.9132,11.729731 7.5203,12.947421 1.4011,1.06165 9.0009,25.45846 9.574,30.73461 0.1932,1.77903 0.9051,4.25403 1.5818,5.5 0.6768,1.24596 1.3763,4.06539 1.5543,6.26539 0.1781,2.2 0.7701,5.89139 1.3155,8.20309 0.8438,3.57617 1.4948,8.47214 3.4963,26.29691 0.1544,1.375 0.5808,4.3 0.9475,6.5 0.6239,3.74309 0.5664,3.87533 -0.8952,2.05887 -0.8591,-1.06762 -1.562,-3.0097 -1.562,-4.31574 0,-1.30604 -0.4358,-3.1888 -0.9684,-4.18393 -0.5325,-0.99512 -1.1761,-5.37544 -1.4302,-9.73405 -0.4904,-8.41335 -2.0614,-13.32515 -4.262,-13.32515 -1.8296,0 -1.7207,4.99332 0.1395,6.38976 0.8133,0.61063 1.4506,2.46024 1.4161,4.11024 -0.2644,12.6435 0.096,20.96943 0.9008,20.79333 0.5193,-0.11367 1.2286,1.86832 1.5762,4.40442 0.5352,3.90486 0.3254,4.82587 -1.37,6.01338 -2.5651,1.79664 -2.5625,3.97623 0.01,4.79134 1.8435,0.58509 1.8844,0.8134 0.5,2.78989 -0.8293,1.18396 -1.5078,2.72752 -1.5078,3.43015 0,1.64529 2.6761,1.66733 3.3377,0.0275 0.2775,-0.6875 0.54,1.28606 0.5834,4.38569 0.045,3.20521 -0.5653,6.87098 -1.4149,8.5 -1.6612,3.18527 -1.9397,5.97836 -0.6739,6.76062 0.4577,0.2829 0.6906,4.17866 0.5176,8.65725 -0.2866,7.4183 -0.1382,8.18903 1.6678,8.6613 2.445,0.63939 2.6513,2.48513 0.2323,2.07898 -1.1683,-0.19617 -1.8562,0.45405 -2.0695,1.95616 -0.3248,2.28656 1.1848,3.08599 2.3296,1.23369 0.7674,-1.24175 2.4957,-0.31614 2.4746,1.32533 -0.01,0.65504 -0.4584,1.86598 -1,2.69098 -0.8062,1.22816 -1.1408,1.25814 -1.8459,0.16547 -0.6576,-1.01892 -0.9902,-0.84154 -1.4064,0.75 -0.3904,1.49298 -0.075,2.08472 1.1112,2.08521 1.4527,5.9e-4 1.6872,1.75368 1.9065,14.25 0.1376,7.83712 0.2467,15.43738 0.2425,16.88945 -0.01,2.24631 2.493,4.70768 3.6279,3.57269 0.733,-0.73293 1.2377,-5.60552 1.3686,-13.21282 0.1081,-6.28036 0.3468,-7.47664 1.1104,-5.56528 0.535,1.33909 0.7506,3.01357 0.4791,3.72106 -0.2715,0.70749 0.1962,1.9761 1.0392,2.81914 1.023,1.02297 1.4415,3.01746 1.2583,5.99641 -0.151,2.45498 0.04,4.77825 0.4247,5.16281 1.2841,1.28405 0.7188,4.36586 -0.8008,4.36586 -0.825,0 -1.5,0.45 -1.5,1 0,0.55 0.3999,1 0.8887,1 0.9787,0 2.5401,6.90453 1.7419,7.70273 -0.2741,0.27411 -1.4722,-0.4089 -2.6624,-1.5178 -1.6838,-1.56863 -2.0176,-2.6832 -1.5041,-5.02117 0.5538,-2.52166 0.3704,-2.9625 -1.1405,-2.74075 -1.4476,0.21247 -1.7376,1.02956 -1.4799,4.17062 0.1762,2.1485 0.7335,4.33387 1.2384,4.85637 0.5048,0.5225 0.9179,2.38686 0.9179,4.14301 0,1.76393 0.6065,3.42574 1.3551,3.71299 0.7452,0.28599 1.5992,2.0245 1.8976,3.86337 0.2984,1.83887 1.6712,5.81553 3.0506,8.83701 1.3794,3.02149 3.7024,9.09362 5.1621,13.49362 1.4597,4.4 4.6046,12.05 6.9887,17 2.3841,4.95 4.672,10.125 5.0842,11.5 0.4122,1.375 1.7378,3.85 2.9458,5.5 1.2079,1.65 2.8117,4.575 3.5639,6.5 0.7521,1.925 1.9491,4.09464 2.6598,4.82143 0.71074,0.72678 1.29224,1.92782 1.29224,2.66896 0,1.60623 3.2338,7.49425 4.1209,7.50329 0.3414,0.003 0.9268,-2.69805 1.3007,-6.0034 0.374,-3.30534 1.361,-8.14284 2.1935,-10.75 0.8324,-2.60715 2.1227,-6.99028 2.8672,-9.74028 3.3936,-12.53478 7.5134,-19.61006 16.3298,-28.04495 3.6208,-3.4641 8.7864,-7.33025 11.4791,-8.59144 l 4.8958,-2.29307 -0.6264,-6.03527 c -3.9877,-38.41766 -5.6549,-92.19663 -3.6295,-117.06903 2.7927,-34.29531 8.3362,-68.46625 11.1072,-68.46625 0.5288,0 0.9615,-1.35 0.9615,-3 0,-1.65 0.3596,-3 0.7991,-3 0.4395,0 1.3679,-1.57312 2.0632,-3.49583 0.6953,-1.92271 2.7951,-5.11912 4.6661,-7.10314 1.8712,-1.98401 3.6515,-4.3926 3.9561,-5.35241 0.5769,-1.81766 4.5043,-4.04862 7.1271,-4.04862 0.8347,0 3.7543,0.9622 6.488,2.13822 2.7338,1.17602 5.9672,2.24358 7.1854,2.37237 3.5561,0.37594 3.715,0.43964 3.715,1.48941 0,0.55 -0.7301,1 -1.6225,1 -1.3288,0 -1.3971,0.27149 -0.3775,1.5 1.5948,1.92169 3,1.92169 3,0 0,-0.825 0.45,-1.5 1,-1.5 0.55,0 1,0.8372 1,1.86045 0,1.02325 1.125,3.51824 2.5,5.54441 1.375,2.02618 2.5,4.07647 2.5,4.55622 0,0.47974 0.3604,1.02225 0.8009,1.20559 1.16804,0.48612 6.06874,9.54743 8.26064,15.27373 2.0397,5.32873 1.8341,7.67792 -0.2572,2.93883 -1.2724,-2.88338 -7.67694,-12.37923 -8.34924,-12.37923 -0.3865,0 2.14674,5.66398 4.69604,10.5 0.8698,1.65 2.1503,4.8 2.8455,7 0.6952,2.2 1.6779,4.52321 2.1837,5.16269 0.5058,0.63949 1.0731,2.88949 1.2606,5 0.1875,2.11052 1.0453,5.63731 1.9061,7.83731 0.8609,2.2 1.5849,4.98594 1.6091,6.19098 0.024,1.20504 0.4394,2.43543 0.9228,2.7342 0.4834,0.29877 0.6499,2.57533 0.37,5.05902 -0.28,2.48369 -0.113,4.51585 0.371,4.51592 0.484,6e-5 0.8985,2.67316 0.921,5.9402 0.031,4.42535 0.5333,6.48421 1.9719,8.07386 1.1893,1.31415 1.4167,2.00933 0.5919,1.8098 -1.9472,-0.47111 -2.2358,3.20616 -0.5213,6.64328 0.8725,1.74921 1.2291,4.10956 0.8688,5.75 -0.3739,1.70251 -0.1921,2.78274 0.4683,2.78274 0.5937,0 1.0795,0.47656 1.0795,1.05902 0,0.58246 -0.45,0.7809 -1,0.44098 -0.6108,-0.3775 -1,1.15628 -1,3.94098 0,3.06939 0.4006,4.47733 1.2262,4.30902 1.535,-0.31294 2.1851,3.59626 1.1809,7.10171 -0.7493,2.61608 -0.7662,2.60572 -1.3877,-0.85171 -0.4545,-2.52877 -0.8806,-0.30881 -1.5354,8 -0.4985,6.325 -0.9239,12.4 -0.9452,13.5 -0.021,1.1 -0.7138,2 -1.5388,2 -1.9506,0 -3.0024,2.61924 -4.016,10 -2.1939,15.97488 -3.12,21.03598 -4.0129,21.92885 -0.5341,0.53413 -0.9711,2.90615 -0.9711,5.27115 0,2.365 -0.45,4.3 -1,4.3 -0.55,0 -1,1.35 -1,3 0,2.94575 -1.2818,3.97115 -2.5,2 -0.34,-0.55 -0.1822,-1 0.3506,-1 0.5328,0 1.4707,-3.2625 2.0843,-7.25 0.6137,-3.9875 1.5487,-9.725 2.0779,-12.75 1.4127,-8.07594 2.0896,-19.74372 1.3226,-22.79971 l -0.6689,-2.66499 -1.2572,3.48235 c -1.5215,4.21458 -1.717,6.29053 -0.5228,5.55247 0.4876,-0.30135 0.038,1.11724 -1,3.15243 -1.0376,2.03518 -1.8865,5.37863 -1.8865,7.42987 0,2.05125 -0.45,4.00766 -1,4.34758 -1.4798,0.91453 -1.2373,-3.52183 0.9293,-17 4.0492,-25.19014 5.2464,-52.32155 3.0526,-69.17764 -3.1588,-24.27049 -14.31634,-58.9785 -19.61314,-61.01107 -0.7529,-0.2889 -1.3688,-1.09702 -1.3688,-1.79583 0,-0.69882 -0.6167,-1.78238 -1.3705,-2.40793 -2.9215,-2.42468 -8.3189,16.24806 -11.9646,41.39247 -4.4081,30.4037 -4.6763,77.80393 -0.7241,128 1.5508,19.69731 1.7114,20.34535 5.4291,21.9068 2.1584,0.90653 3.5313,0.99852 4.4224,0.29631 0.8892,-0.70064 1.6536,-0.65719 2.45,0.13927 1.729,1.72899 5.8554,1.39713 7.3656,-0.59238 1.2302,-1.62051 1.3308,-1.58352 1.3603,0.5 0.021,1.4587 0.6472,2.2548 1.7818,2.26365 0.9625,0.008 2.8328,0.3034 4.1563,0.65753 1.6872,0.45143 2.1926,0.29792 1.691,-0.51366 -1.5669,-2.53528 0.6199,-2.99331 5.10744,-1.06976 2.5554,1.09536 5.163,1.79323 5.7947,1.55082 1.1836,-0.45418 3.7451,-10.47605 6.0417,-23.63858 0.7198,-4.125 1.8088,-9.84002 2.42,-12.70004 0.6112,-2.86002 1.9075,-11.46814 2.8806,-19.12914 1.6477,-12.97227 1.6139,-17.42642 -0.1308,-17.24482 -1.966,0.20463 -1.9983,-0.13864 -0.086,-0.911 1.8821,-0.76002 2.208,-1.96237 2.8487,-10.50756 0.8965,-11.95798 -0.1127,-34.20533 -2.0643,-45.50744 -1.5241,-8.82583 -8.5177,-34.62121 -10.9922,-40.54341 -2.0057,-4.8004 -1.7572,-6.15833 0.5826,-3.18372 1.1,1.39842 2,2.94959 2,3.44703 0,0.49744 0.8404,2.67646 1.8675,4.84227 3.4228,7.21738 6.1325,16.39701 6.1325,20.77515 0,2.38114 0.3375,4.66511 0.75,5.07549 0.818,0.81376 2.5951,12.38168 4.3149,28.08719 1.1857,10.82737 0.5453,41.28579 -1.0618,50.5 -0.5276,3.025 -2.1419,12.61248 -3.5873,21.3055 -1.4454,8.69303 -3.905,21.29303 -5.4659,28 l -2.8379,12.1945 2.1618,1.66855 c 1.1889,0.9177 3.4208,1.92037 4.9597,2.22815 1.5389,0.30777 5.1968,1.69443 8.1287,3.08145 2.932,1.38702 5.7948,2.52185 6.3619,2.52185 0.5671,0 1.5912,0.675 2.2759,1.5 0.6847,0.825 2.3579,1.5 3.7182,1.5 1.3602,0 3.6676,0.6347 5.1275,1.41045 4.5726,2.42982 10.6119,5.07279 11.6556,5.10085 0.5507,0.0148 2.0649,0.77187 3.3648,1.68237 1.2999,0.9105 2.9653,1.42452 3.7008,1.14228 0.7355,-0.28225 1.9214,-0.1358 2.6352,0.32544 0.7139,0.46123 2.6479,0.89616 4.2979,0.96649 4.3139,0.18389 28.1613,8.10435 30.9533,10.28054 0.5757,0.44869 2.3518,1.12839 3.9469,1.51044 1.5951,0.38204 6.9951,2.27128 12,4.19831 5.0049,1.92702 14.4998,5.56778 21.0998,8.09057 6.6,2.52278 17.4,6.71176 24,9.30884 6.6,2.59707 20.55,7.72643 31,11.39857 10.45,3.67214 21.925,7.76223 25.5,9.0891 3.575,1.32686 8.5032,2.71109 10.9516,3.07607 2.4484,0.36498 6.2734,1.44249 8.5,2.39447 2.2266,0.95198 6.2984,2.06651 9.0484,2.47673 2.75,0.41023 5.9,1.24115 7,1.84648 1.1,0.60534 2.9648,0.98496 4.1441,0.84362 1.1792,-0.14134 3.8217,0.44397 5.8721,1.3007 2.0504,0.85672 4.4831,1.55768 5.4059,1.55768 0.9229,0 2.2368,0.55888 2.9199,1.24196 0.683,0.68309 3.5855,1.32754 6.45,1.43213 2.8644,0.1046 7.1771,0.89571 9.5837,1.75804 2.4067,0.86233 5.3542,1.56787 6.55,1.56787 1.1959,0 2.7,0.52569 3.3425,1.16821 0.6425,0.64252 4.22,1.33735 7.95,1.54407 3.73,0.20673 10.1568,0.81659 14.2818,1.35526 12.1533,1.58706 36.1779,1.13891 48,-0.89538 10.6442,-1.8316 27.9802,-6.11058 30.9239,-7.63281 1.6372,-0.84664 3.4479,-1.53935 4.0238,-1.53935 0.5758,0 4.0857,-1.41169 7.7996,-3.1371 17.7799,-8.26002 36.782,-24.75059 44.0529,-38.23026 6.497,-12.04498 8.6751,-20.36586 8.6731,-33.13264 0,-12.66324 -1.3356,-18.99158 -6.2166,-29.5 -1.916,-4.125 -3.8715,-8.5125 -4.3454,-9.75 -0.474,-1.2375 -1.3388,-2.25 -1.9217,-2.25 -0.7364,0 -0.7268,-0.6225 0.031,-2.03902 0.8932,-1.66895 0.6475,-2.56634 -1.3536,-4.94455 -1.3447,-1.59804 -2.7921,-2.59298 -3.2164,-2.21098 -0.4244,0.382 -0.4923,0.20394 -0.1509,-0.3957 0.3413,-0.59964 -1.6116,-3.73016 -4.3397,-6.95672 -2.7282,-3.22656 -4.9603,-6.22344 -4.9603,-6.65975 0,-0.4363 0.9266,-0.79328 2.059,-0.79328 1.1325,0 1.7809,0.45 1.441,1 -0.3399,0.55 0.1101,1 1,1 0.8899,0 1.3589,0.41921 1.0423,0.93158 -0.6963,1.12658 3.4301,4.20348 4.637,3.45762 0.4693,-0.29007 0.5944,-0.9463 0.278,-1.4583 -0.3164,-0.51199 0.1562,-0.9309 1.0504,-0.9309 1.4642,0 9.2698,7.56362 12.803,12.40612 0.7649,1.04837 2.4705,1.99403 3.79,2.10147 1.6248,0.13228 2.3044,0.7275 2.1055,1.84387 -0.1671,0.93753 0.362,1.64854 1.2269,1.64854 0.8364,0 2.2579,1.125 3.1589,2.5 0.9009,1.375 2.2758,2.5 3.0552,2.5 1.4543,0 3.4615,3.91602 2.6844,5.23705 -0.2385,0.40538 0.5202,1.75538 1.686,3 1.1658,1.24462 2.3719,3.50981 2.6802,5.03376 0.3083,1.52394 0.9524,3.013 1.4314,3.30902 0.4789,0.29601 0.8708,1.86605 0.8708,3.48897 0,1.66167 0.8302,3.66159 1.9003,4.57784 1.5458,1.3236 1.72,2.14401 0.9341,4.39869 -0.6919,1.98478 -0.543,4.19689 0.5247,7.79203 0.82,2.76122 1.2679,5.87294 0.9954,6.91494 -0.2725,1.042 0.4328,3.46779 1.5673,5.39064 1.9767,3.35027 1.998,3.74345 0.5098,9.42657 -0.8542,3.26177 -1.3388,7.05549 -1.0769,8.43049 0.2619,1.375 -0.3,4.075 -1.2487,6 -14.865,30.16201 -32.6738,50.47265 -51.606,58.85578 -22.6391,10.02455 -28.4819,11.90043 -50.5,16.21354 -20.2046,3.95785 -71.8115,2.78463 -90,-2.04604 -1.925,-0.51126 -5.075,-1.17587 -7,-1.47692 -1.925,-0.30105 -5.3,-0.96141 -7.5,-1.46747 -2.2,-0.50607 -6.475,-1.41147 -9.5,-2.01201 -8.2395,-1.63574 -8.4616,-1.68823 -23,-5.43668 -7.425,-1.91439 -15.3,-4.12368 -17.5,-4.90955 -2.2,-0.78586 -5.8,-1.75531 -8,-2.15434 -5.3041,-0.96204 -18.2287,-5.04979 -27.373,-8.65746 -4.0552,-1.59987 -7.7865,-2.90885 -8.2917,-2.90885 -0.5053,0 -3.7124,-1.30415 -7.127,-2.8981 -3.4146,-1.59396 -8.0834,-3.40123 -10.3751,-4.01615 -2.2918,-0.61492 -5.4418,-1.783 -7,-2.59573 -1.5583,-0.81274 -3.3844,-1.48047 -4.0581,-1.48386 -0.6737,-0.003 -4.1058,-1.56162 -7.6268,-3.46274 -3.521,-1.90111 -6.6658,-3.1926 -6.9884,-2.86997 -0.3227,0.32264 -4.0906,-1.10059 -8.3733,-3.16272 -11.8836,-5.7221 -12.4532,-5.97512 -13.6606,-6.06846 -2.3935,-0.18502 -7.626,-2.68743 -7.626,-3.64708 0,-0.55504 -0.733,-0.72788 -1.629,-0.38408 -2.0512,0.78714 -8.2166,-1.25145 -10.9355,-3.61581 -1.1354,-0.98742 -2.7963,-1.7953 -3.6909,-1.7953 -0.8946,0 -1.9047,-0.45 -2.2446,-1 -0.3399,-0.55 -1.7653,-1 -3.1674,-1 -2.22,0 -2.4683,-0.323 -1.922,-2.5 0.6684,-2.66307 0.1132,-2.91131 -5.6606,-2.5306 -1.5125,0.0997 -2.751,-0.19008 -2.7523,-0.64403 0,-0.45396 -1.3198,-0.8717 -2.9302,-0.92832 -4.0895,-0.14379 -10.0763,-3.13963 -13.228,-6.61937 -1.4633,-1.6156 -3.0383,-2.9588 -3.5,-2.98489 -1.619,-0.0915 -3.889,-1.01072 -9.6041,-3.8893 -3.1706,-1.59692 -6.5831,-2.90349 -7.5834,-2.90349 -1.0002,0 -2.1179,-0.29928 -2.4837,-0.66507 -0.3658,-0.36578 -1.7907,-0.78507 -3.1665,-0.93176 -1.3757,-0.14668 -3.8084,-1.1974 -5.4059,-2.33493 -3.1377,-2.23447 -4.5814,-2.66334 -3.5955,-1.06824 0.7097,1.14832 -0.047,1.22786 -3.3268,0.34965 -1.2797,-0.34267 -2.7097,-1.63034 -3.1777,-2.86148 -0.6629,-1.74357 -1.426,-2.12853 -3.4517,-1.7413 -1.4304,0.27343 -4.5004,-0.0231 -6.8222,-0.65899 -2.3219,-0.63587 -5.2288,-1.33892 -6.4599,-1.56232 -2.4878,-0.45149 -5.2617,1.76261 -5.2617,4.19979 0,1.669 -7.77824,22.06226 -9.06794,23.77465 -0.4142,0.55 -1.0605,2.8 -1.4361,5 -0.3756,2.2 -1.5409,5.21928 -2.5895,6.70951 -1.0486,1.49023 -1.9065,3.26065 -1.9065,3.93427 0,0.67363 -0.8248,3.05435 -1.8328,5.2905 -4.861,10.7835 -4.9633,13.58017 -1.044,28.56572 2.8469,10.88555 2.7918,10.74552 5.4939,13.95689 3.3399,3.96914 3.8824,7.09973 1.3454,7.76317 -1.0794,0.28226 -1.9625,1.08689 -1.9625,1.78807 0,1.52099 -13.6501,4.84386 -15.3528,3.73738 -0.631,-0.41003 -1.994,-0.74551 -3.0289,-0.74551 -1.3232,0 -2.9738,-2.12045 -5.5619,-7.14499 -3.9689,-7.70505 -4.4617,-7.87284 -9.576,-3.26058 -2.5644,2.31259 -13.3111,4.87157 -20.5393,4.89079 -7.9833,0.0212 -9.2594,1.24155 -7.8586,7.51478 0.6141,2.75 1.3382,7.25 1.6092,10 0.2709,2.75 0.9012,5.4275 1.4005,5.95 1.0491,1.09788 1.2318,7.89261 0.2389,8.88552 -0.3679,0.36786 -1.4178,-0.009 -2.3332,-0.83735 -1.5075,-1.36431 -1.6468,-1.29386 -1.4787,0.74782 0.1489,1.80757 0.71,2.197 2.8332,1.96616 2.0454,-0.22237 2.6476,0.14956 2.6476,1.63517 0,1.05765 0.635,4.11219 1.4111,6.78785 0.7762,2.67565 2.1613,8.46483 3.0782,12.86483 3.3712,16.17823 5.6435,26.07417 6.6589,29 0.5727,1.65 1.466,5.025 1.9852,7.5 1.7582,8.38202 3.2155,13.49793 3.9965,14.03056 0.4279,0.2918 1.0113,2.9918 1.2966,6 0.5825,6.14391 3.2081,14.22463 5.8297,17.94195 0.9591,1.35987 1.7438,2.98875 1.7438,3.61972 0,1.44503 3.1959,11.19111 6.0365,18.40777 1.1906,3.025 2.7655,7.75 3.4998,10.5 1.9414,7.27084 4.2728,14.38928 5.1698,15.78528 0.4293,0.6681 1.3081,3.01472 1.9528,5.21472 2.3509,8.02174 4.5552,13.35268 6.2919,15.2169 1.5653,1.68006 9.5743,20.54041 11.5859,27.2831 0.4101,1.375 2.5466,5.875 4.74764,10 2.201,4.125 6.0232,11.325 8.4938,16 2.4706,4.675 7.4449,13 11.0538,18.5 11.9223,18.16923 20.0827,26.20931 29.4146,28.98056 4.2601,1.26511 5.4036,1.27465 8.2888,0.0692 5.0752,-2.12058 5.7427,-6.07537 5.1467,-30.49735 -0.9593,-39.31329 -1.9597,-54.41708 -4.7865,-72.26245 -0.5846,-3.69055 -0.8056,-7.12635 -0.4912,-7.63513 0.3145,-0.50877 0.1544,-2.21423 -0.3557,-3.78991 -0.5101,-1.57568 -1.162,-5.56487 -1.4487,-8.86487 -0.2866,-3.3 -0.9863,-8.7 -1.5547,-12 -0.5685,-3.3 -1.0362,-8.32615 -1.0394,-11.16923 0,-2.84308 -0.6717,-7.79308 -1.4855,-11 -0.8139,-3.20692 -2.3851,-12.13077 -3.4915,-19.83077 -1.1065,-7.7 -2.4071,-16.25 -2.8902,-19 -0.4831,-2.75 -1.4192,-8.15 -2.0803,-12 -0.6612,-3.85 -1.84,-9.7 -2.6197,-13 -0.7796,-3.3 -1.8788,-8.7 -2.4425,-12 -1.7652,-10.33365 -3.4654,-17.95261 -4.2904,-19.22618 -0.4369,-0.67439 -1.0475,-3.59939 -1.3568,-6.5 -0.3094,-2.9006 -1.3689,-7.74882 -2.3543,-10.77382 -0.9855,-3.025 -2.2512,-7.3 -2.8127,-9.5 -0.9411,-3.68736 -1.9667,-7.47633 -5.6846,-21 -0.756,-2.75 -2.1226,-7.025 -3.0369,-9.5 -0.9143,-2.475 -2.3124,-6.96293 -3.1068,-9.97317 -1.6871,-6.39262 -8.8099,-20.96484 -11.1332,-22.77683 -0.8815,-0.6875 -1.2219,-1.25 -0.7566,-1.25 0.4654,0 0.088,-0.83782 -0.8388,-1.86182 -2.3286,-2.5731 -3.84844,-12.46761 -2.4482,-15.93915 0.5988,-1.48447 1.0138,-4.1764 0.9224,-5.98208 -0.2022,-3.99138 2.4541,-8.54447 3.4583,-5.92772 0.345,0.89905 1.4174,1.88542 2.3831,2.19192 0.9657,0.30651 2.2806,1.70899 2.922,3.11662 0.6413,1.40763 1.7221,2.36145 2.4017,2.11959 0.6796,-0.24186 2.9115,0.40099 4.9597,1.42854 2.8329,1.42118 4.3704,3.24261 6.425,7.61119 2.5085,5.33376 6.0115,11.0708 7.4755,12.24291 1.2515,1.00204 8.2121,19.27818 9.9023,26 2.2552,8.96883 3.2208,12.54648 4.0486,15 0.4638,1.375 1.1548,4.3 1.5354,6.5 0.3806,2.2 1.7488,6.92305 3.0406,10.49567 1.2917,3.57261 2.3486,7.3491 2.3486,8.39218 0,1.04309 0.8427,4.87004 1.8727,8.50434 1.03,3.63429 2.3985,9.30781 3.0411,12.60781 0.6426,3.3 1.6201,7.8 2.1722,10 0.5522,2.2 1.6283,7.15 2.3915,11 0.7631,3.85 2.3293,11.725 3.4805,17.5 1.1511,5.775 2.7335,14.775 3.5163,20 5.3276,35.5578 6.611,43.67026 7.1193,45 0.3154,0.825 1.1861,6.45 1.9349,12.5 2.0975,16.94584 3.4446,27.42907 6.0395,47 3.6232,27.32566 5.9406,60.55664 5.858,84 l -0.074,21 -3.888,9.84784 c -3.4506,8.73969 -4.3852,10.18989 -8.306,12.88749 -4.1879,2.88131 -11.8541,4.77492 -13.3132,3.28843 z M 867.50432,724.69473 c -0.1971,-0.59125 -0.7858,-1.075 -1.3083,-1.075 -0.5225,0 -1.1113,0.48375 -1.3084,1.075 -0.1971,0.59125 0.3917,1.075 1.3084,1.075 0.9166,0 1.5054,-0.48375 1.3083,-1.075 z m 0.8847,-143.65597 c -0.2536,-0.97297 -0.4777,-0.41903 -0.4981,1.23097 -0.02,1.65 0.1871,2.44606 0.461,1.76903 0.2739,-0.67703 0.2906,-2.02703 0.037,-3 z m 72.30704,-5.26903 c -0.5887,-1.1 -1.2374,-2 -1.4416,-2 -0.2042,0 -0.1358,0.9 0.1518,2 0.2877,1.1 0.9364,2 1.4416,2 0.5074,0 0.4395,-0.89508 -0.1518,-2 z m 4.3616,-28.5 c -0.3166,-0.825 -0.7525,-1.5 -0.9686,-1.5 -0.2162,0 -0.393,0.675 -0.393,1.5 0,0.825 0.4358,1.5 0.9686,1.5 0.5327,0 0.7096,-0.675 0.393,-1.5 z m -85.66864,-16.23097 c -0.2536,-0.97297 -0.4777,-0.41903 -0.4981,1.23097 -0.02,1.65 0.1871,2.44606 0.461,1.76903 0.2739,-0.67703 0.2906,-2.02703 0.037,-3 z m 11.307,1.73097 c 0.8543,-1.5963 0.7605,-2 -0.4649,-2 -0.8685,0 -1.5351,0.86852 -1.5351,2 0,1.1 0.2091,2 0.4648,2 0.2556,0 0.9465,-0.9 1.5352,-2 z m 67.93754,-8.36534 c -0.951,-0.87589 -1.0843,-0.7169 -0.5847,0.69713 0.3559,1.00748 0.7084,2.58248 0.7833,3.5 0.075,0.91751 0.338,0.60381 0.5847,-0.69713 0.2467,-1.30093 -0.1058,-2.87593 -0.7833,-3.5 z m -69.25444,1.17784 c -0.3192,-0.79773 -0.5562,-0.56078 -0.6042,0.60417 -0.043,1.05416 0.1929,1.64479 0.5252,1.3125 0.3323,-0.33229 0.3678,-1.1948 0.079,-1.91667 z m 58.60254,-0.82808 c -0.4956,-1.89539 -2.2856,-3.83579 -2.2856,-2.4777 0,0.85034 1.9795,4.49328 2.4415,4.49328 0.2042,0 0.134,-0.90701 -0.1559,-2.01558 z m -62.28564,-8.04344 c 0,-0.51754 -0.45,-0.94098 -1,-0.94098 -0.55,0 -1,0.70156 -1,1.55902 0,0.85746 0.45,1.2809 1,0.94098 0.55,-0.33992 1,-1.04148 1,-1.55902 z m 61.50004,1.05902 c 0.3399,-0.55 0.1414,-1 -0.441,-1 -0.5825,0 -1.059,0.45 -1.059,1 0,0.55 0.1984,1 0.4409,1 0.2426,0 0.7191,-0.45 1.0591,-1 z m -57.80704,-3.73097 c -0.2536,-0.97297 -0.4777,-0.41903 -0.4981,1.23097 -0.02,1.65 0.1871,2.44606 0.461,1.76903 0.2739,-0.67703 0.2906,-2.02703 0.037,-3 z m -4.0889,-2.9982 c -1.0165,-1.01651 -1.8552,0.51389 -1.0212,1.86338 0.63,1.01942 0.8656,1.02021 1.2043,0.004 0.2316,-0.69479 0.1492,-1.53513 -0.1831,-1.86742 z m 5.3652,-5.27083 c 0,-1.33333 -0.1077,-1.33333 -0.9693,0 -0.5332,0.825 -0.9694,2.175 -0.9694,3 0,1.33333 0.1077,1.33333 0.9694,0 0.5331,-0.825 0.9693,-2.175 0.9693,-3 z m 177.03078,-0.83333 c 0,-0.45834 -0.675,-0.83334 -1.5,-0.83334 -0.825,0 -1.5,0.375 -1.5,0.83334 0,0.45833 0.675,0.83333 1.5,0.83333 0.825,0 1.5,-0.375 1.5,-0.83333 z m -178.31698,-7.35417 c -0.3192,-0.79773 -0.5562,-0.56078 -0.6042,0.60417 -0.043,1.05416 0.1929,1.64479 0.5252,1.3125 0.3323,-0.33229 0.3678,-1.1948 0.079,-1.91667 z m 175.31698,-5.8125 c 0,-0.55 -0.4766,-1 -1.059,-1 -0.5825,0 -0.7809,0.45 -0.441,1 0.3399,0.55 0.8165,1 1.059,1 0.2426,0 0.441,-0.45 0.441,-1 z m -114.40194,-12.25 c -0.3187,-3.4375 -0.5925,-7.6 -0.6084,-9.25 -0.045,-4.62625 -3.1312,-14.62135 -4.3816,-14.18842 -1.2969,0.449 -1.1878,3.42703 0.3548,9.68842 0.6098,2.475 1.5183,7.875 2.019,12 0.5006,4.125 0.9345,7.6125 0.9641,7.75 0.03,0.1375 0.5439,0.25 1.1428,0.25 0.7308,0 0.8982,-2.05529 0.5093,-6.25 z m -63.59814,0.25 c 0,-1.1 -0.3536,-2 -0.7857,-2 -0.4322,0 -0.7858,0.9 -0.7858,2 0,1.1 0.3536,2 0.7858,2 0.4321,0 0.7857,-0.9 0.7857,-2 z m 4.9863,0.25 c -0.022,-2.81748 -1.1548,-6.2639 -1.9063,-5.79946 -0.9878,0.61049 -0.042,7.54946 1.0294,7.54946 0.4898,0 0.8844,-0.7875 0.8769,-1.75 z m -5.803,-5.46667 c -0.7176,-0.71756 -1.1833,-0.7766 -1.1833,-0.15 0,1.33478 1.1826,2.51739 1.85,1.85 0.2841,-0.28416 -0.016,-1.04916 -0.6667,-1.7 z m 54.81674,-0.34235 c 0,-1.45136 -0.4329,-2.2915 -1,-1.94098 -0.55,0.33992 -1,1.49148 -1,2.55902 0,1.06754 0.45,1.94098 1,1.94098 0.55,0 1,-1.15156 1,-2.55902 z m 123.68314,-1.62848 c -0.3192,-0.79773 -0.5562,-0.56078 -0.6042,0.60417 -0.043,1.05416 0.193,1.64479 0.5253,1.3125 0.3323,-0.33229 0.3678,-1.1948 0.079,-1.91667 z m -172.25988,-2.0625 c 0.9187,-4.47945 1.4967,-10.21495 0.8818,-8.75 -0.3463,0.825 -1.1776,1.95 -1.8474,2.5 -1.4703,1.20733 -2.751,6.21642 -1.9293,7.54599 1.0253,1.65896 2.4166,1.03608 2.8949,-1.29599 z m -6.4386,-3.5 c -0.011,-2.00139 -0.2582,-2.36635 -0.9075,-1.34068 -0.4907,0.77512 -0.6607,2.01262 -0.3777,2.75 0.8114,2.11462 1.3018,1.57691 1.2852,-1.40932 z m 55.01534,-1.28138 c 0,-0.56727 -0.6725,-1.28942 -1.4943,-1.60479 -0.8218,-0.31537 -1.2704,-0.93564 -0.9967,-1.37837 0.672,-1.0874 -0.5031,-3.98546 -1.616,-3.98546 -1.1682,0 -1.1344,2.23492 0.082,5.4349 0.9396,2.47144 4.0247,3.64709 4.0247,1.53372 z m 120.10534,-5.234 c -2.4895,-3.88706 -2.6956,-3.03215 -0.4937,2.0475 0.8864,2.04483 1.8262,3.14846 2.0884,2.4525 0.2623,-0.69596 -0.4553,-2.72096 -1.5947,-4.5 z m -179.41238,-3.46559 c -0.2536,-0.97297 -0.4777,-0.41903 -0.4981,1.23097 -0.02,1.65 0.1871,2.44606 0.461,1.76903 0.2739,-0.67703 0.2906,-2.02703 0.037,-3 z m 3.9901,0.54347 c -0.3192,-0.79773 -0.5562,-0.56078 -0.6042,0.60417 -0.043,1.05416 0.1929,1.64479 0.5252,1.3125 0.3323,-0.33229 0.3678,-1.1948 0.079,-1.91667 z m 170.29688,-0.33667 c -0.6957,-0.83829 -1.5253,-1.26382 -1.8435,-0.94562 -0.3182,0.31819 0.083,0.99718 0.8925,1.50885 2.117,1.33881 2.3936,1.17499 0.951,-0.56323 z m -164.33528,-2.95922 c -0.5036,-1.31252 -0.876,-1.37939 -1.9734,-0.35435 -0.9847,0.91988 -1.0559,1.59076 -0.2619,2.467 1.4057,1.55134 3.0463,8.1e-4 2.2353,-2.11265 z m 167.44728,-2.60229 -0.9652,-2.41432 -0.063,2.58333 c -0.035,1.42084 0.2648,2.91146 0.6658,3.3125 1.1875,1.18748 1.4029,-0.87976 0.3628,-3.48151 z m -167.09198,-4.3553 c 0,-0.79254 -0.45,-1.7191 -1,-2.05902 -0.55,-0.33992 -1,-0.40328 -1,-0.1408 0,0.26247 -0.2732,1.18903 -0.607,2.05901 -0.3983,1.03799 -0.054,1.58179 1,1.58179 0.8838,0 1.607,-0.64844 1.607,-1.44098 z m -1,-6.61804 c 0,-1.13246 -0.45,-1.7809 -1,-1.44098 -0.55,0.33992 -1,1.26648 -1,2.05902 0,0.79254 0.45,1.44098 1,1.44098 0.55,0 1,-0.92656 1,-2.05902 z m 480.25008,0.39674 c -0.6875,-0.27741 -1.8125,-0.27741 -2.5,0 -0.6875,0.27741 -0.125,0.50439 1.25,0.50439 1.375,0 1.9375,-0.22698 1.25,-0.50439 z m 8.75,-0.33772 c 0,-0.55 -0.6484,-1 -1.441,-1 -0.7925,0 -1.7191,0.45 -2.059,1 -0.3399,0.55 0.3085,1 1.441,1 1.1324,0 2.059,-0.45 2.059,-1 z m 13,-0.5 c 0,-1.68305 -0.1831,-1.75069 -2.4182,-0.89301 -2.2344,0.85742 -1.966,2.39301 0.4182,2.39301 1.1111,0 2,-0.66667 2,-1.5 z m -412.01374,-2.75 c -0.025,-2.32389 -1.2147,-5.75 -1.996,-5.75 -0.427,0 -1.0443,0.69837 -1.3719,1.55194 -0.3415,0.88992 -0.1738,1.29132 0.393,0.94098 0.553,-0.34179 0.9886,0.51646 0.9886,1.94806 0,1.40746 0.45,2.55902 1,2.55902 0.55,0 0.9938,-0.5625 0.9863,-1.25 z m 433.51374,-1.33193 c 19.2235,-6.26037 30.2438,-11.07432 28.7564,-12.56163 -0.4648,-0.46484 -5.3252,1.17512 -10.8008,3.64436 -5.4756,2.46923 -10.7165,4.4917 -11.6466,4.49436 -0.93,0.003 -1.9691,0.45484 -2.309,1.00484 -0.3399,0.55 -1.4098,1 -2.3775,1 -3.0274,0 -12.1225,3.03015 -12.1225,4.03874 0,1.48277 1.8446,1.19806 10.5,-1.62067 z m -522.57038,-7.22709 c -0.088,-4.60282 -1.4639,-8.41765 -2.2335,-6.19098 -1.3323,3.85477 -1.4751,6.39116 -0.4827,8.56929 1.4767,3.24101 2.8011,2.08134 2.7162,-2.37831 z m 71.18044,1.27017 c 5.1124,-1.80376 9.162,-5.39032 12.3762,-10.96115 2.2538,-3.9063 2.2766,-4.21082 0.9729,-13 -1.4413,-9.71749 -5.289,-37.79894 -5.9603,-43.5 -0.2266,-1.925 -0.9085,-6.68062 -1.5152,-10.56805 -1.1025,-7.06433 -1.1046,-7.06782 -4.0556,-6.6347 -3.4173,0.50155 -4.6336,1.89733 -3.041,3.48988 1.5309,1.53094 1.402,4.71287 -0.191,4.71287 -2.288,0 -7.5474,6.33851 -10.7568,12.96394 -2.2844,4.71598 -3.2115,8.21476 -3.494,13.1873 -0.2115,3.72254 -0.01,7.00076 0.4514,7.28493 0.9637,0.59562 4.1239,-2.61575 4.5252,-4.59846 0.1489,-0.73574 0.8066,-2.64849 1.4616,-4.25055 0.8515,-2.08285 1.498,-2.6056 2.2691,-1.83457 0.771,0.77103 0.6227,1.99148 -0.5206,4.28318 -0.8793,1.7627 -2.566,6.86326 -3.7481,11.33457 -1.1821,4.47131 -2.5396,8.55716 -3.0166,9.07966 -0.8331,0.91248 -1.4043,-3.6063 -1,-7.91176 0.1012,-1.07896 -0.085,-2.65396 -0.413,-3.5 -0.5182,-1.33472 -0.7708,-1.30249 -1.9093,0.24368 -1.2297,1.66993 -1.3471,1.6385 -1.8682,-0.5 -0.3058,-1.25506 -0.3988,-3.89613 -0.2067,-5.86905 0.4921,-5.05479 -1.0311,-7.06673 -1.8888,-2.49478 -0.3731,1.98876 -0.3928,4.07799 -0.044,4.64272 0.349,0.56474 0.093,1.67969 -0.5695,2.47767 -0.6623,0.79798 -0.9655,2.36331 -0.6739,3.47852 0.2916,1.11521 -0.1502,3.39168 -0.9819,5.05883 -1.0353,2.07529 -1.3073,4.35454 -0.8626,7.22767 0.3572,2.30808 0.7844,6.54366 0.9492,9.41242 0.3078,5.3585 1.7994,8.28408 4.2236,8.28408 0.7576,0 1.3775,0.62264 1.3775,1.38364 0,0.761 1.8013,3.011 4.0029,5 4.5067,4.07157 7.2926,4.48184 14.1072,2.07751 z m -16.3192,-10.96115 c -0.9171,-4.37303 -0.4037,-14.50914 0.7343,-14.49649 1.1201,0.0124 1.294,4.53928 0.4682,12.18662 -0.4992,4.62301 -0.6548,4.9218 -1.2025,2.30987 z m -5.7591,-20.05887 c -0.017,-1.68238 0.6289,-3.93238 1.4364,-5 1.3948,-1.8441 1.4697,-1.78823 1.5,1.11774 0.017,1.68238 -0.6289,3.93238 -1.4364,5 -1.3948,1.8441 -1.4698,1.78823 -1.5,-1.11774 z m 11.1557,-26.50363 c 0.2406,-0.72188 1.0281,-1.50937 1.75,-1.75 0.75,-0.25 1.125,0.125 0.875,0.875 -0.2407,0.72187 -1.0282,1.50937 -1.75,1.75 -0.75,0.25 -1.125,-0.125 -0.875,-0.875 z m 1.8443,-5.21888 c -0.017,-0.97977 0.6453,-2.04122 1.4729,-2.3588 0.8276,-0.31758 2.2453,-2.13822 3.1506,-4.04587 1.208,-2.54566 2.1376,-3.33985 3.4943,-2.98508 1.0166,0.26585 2.1004,0.0756 2.4084,-0.42275 0.8715,-1.41006 2.442,-1.06607 2.442,0.53486 0,2.10996 -1.8687,2.91288 -3.5438,1.52267 -1.1732,-0.97364 -1.4562,-0.89319 -1.4562,0.41391 0,0.89234 -0.3938,1.62244 -0.875,1.62244 -0.4813,0 -1.145,1.35 -1.475,3 -0.5742,2.87087 -2.65,4.28781 -2.65,1.80887 0,-0.65512 -0.6607,-0.31762 -1.4682,0.75 -1.3508,1.78588 -1.4708,1.79866 -1.5,0.15975 z m -67.22574,59.74479 c -0.085,-2.26811 -0.4785,-3.19106 -1.0963,-2.57322 -0.894,0.89398 -0.2292,6.10981 0.7788,6.10981 0.2477,0 0.3906,-1.59147 0.3175,-3.53659 z m 165.54328,-0.99544 c -0.7932,-2.06711 -1.3493,-1.82352 -1.3493,0.59105 0,1.13246 0.4303,1.79305 0.9563,1.46797 0.526,-0.32507 0.7028,-1.25163 0.393,-2.05902 z m -73.29654,0.28203 c -0.029,-0.4125 -0.063,-2.2125 -0.075,-4 l -0.022,-3.25 -1.845,2.39971 c -2.0323,2.6433 -1.6713,6.3689 0.5716,5.89871 0.7829,-0.16413 1.3997,-0.63592 1.3707,-1.04842 z m 469.87684,-3.68534 c 1.5556,-0.98444 2.3869,-4.06466 1.0969,-4.06466 -0.4381,0 -1.5336,1.125 -2.4345,2.5 -1.6834,2.56907 -1.18,3.15788 1.3376,1.56466 z M 861.38902,412.03876 c -0.2536,-0.97297 -0.4777,-0.41903 -0.4981,1.23097 -0.02,1.65 0.1871,2.44606 0.461,1.76903 0.2739,-0.67703 0.2906,-2.02703 0.037,-3 z m 9.1651,-7.34984 c -0.045,-4.81111 0.1911,-9.18989 0.5253,-9.73062 0.9082,-1.46949 -0.5116,-7.46041 -1.5273,-6.44467 -0.4779,0.47789 -1.1541,6.28101 -1.5026,12.89583 -0.5612,10.65247 -0.4496,12.02694 0.9767,12.02694 1.3639,0 1.5977,-1.33819 1.5279,-8.74748 z m 571.97848,5.09025 c -0.26,-0.77981 -1.2431,-0.44433 -2.8661,0.97798 -1.3587,1.19072 -1.9079,1.87911 -1.2204,1.52975 0.6875,-0.34936 1.25,-0.0622 1.25,0.6381 0,0.88967 0.4869,0.7864 1.6161,-0.34277 0.8888,-0.88884 1.438,-2.15021 1.2204,-2.80306 z m 15.9934,-0.51287 c -0.3074,-0.30744 -1.3492,0.69256 -2.315,2.22222 l -1.756,2.78121 2.315,-2.22222 c 1.2732,-1.22222 2.0634,-2.47377 1.756,-2.78121 z m -593.32998,0.50343 c 0.3399,-0.55 0.1414,-1 -0.441,-1 -0.5825,0 -1.059,0.45 -1.059,1 0,0.55 0.1984,1 0.4409,1 0.2426,0 0.7191,-0.45 1.0591,-1 z m 120.94564,-7.48566 c 0.8146,-2.70656 1.3817,-5.02037 1.2602,-5.14181 -0.1214,-0.12143 -1.5674,-0.36743 -3.2133,-0.54666 l -2.9925,-0.32587 0.3541,5.5 c 0.5731,8.90128 2.0187,9.06322 4.5915,0.51434 z m 462.55444,3.98566 c 0,-0.825 -0.1769,-1.5 -0.393,-1.5 -0.2162,0 -0.652,0.675 -0.9686,1.5 -0.3166,0.825 -0.1398,1.5 0.393,1.5 0.5327,0 0.9686,-0.675 0.9686,-1.5 z m -290.9473,-2.08806 c -6.9036,-3.13398 -10.6059,-4.11602 -9.6428,-2.55778 0.3895,0.63021 1.2614,1.14584 1.9377,1.14584 0.6762,0 2.9948,0.9 5.1524,2 2.1576,1.1 4.8402,1.97408 5.9614,1.94239 1.2108,-0.0342 -0.1734,-1.06177 -3.4087,-2.53045 z m -136.0229,-0.35625 c -1.3045,-2.43748 -3.0298,-3.5621 -3.0298,-1.97495 0,0.65933 0.7875,1.79657 1.75,2.52721 2.35,1.78391 2.4963,1.72078 1.2798,-0.55226 z m 444.9702,-0.0557 c 0.5887,-1.1 0.8454,-2 0.5704,-2 -0.275,0 -0.9817,0.9 -1.5704,2 -0.5887,1.1 -0.8454,2 -0.5704,2 0.275,0 0.9817,-0.9 1.5704,-2 z m -2.7188,-2.14177 c 0.9797,-1.72101 1.598,-3.31238 1.374,-3.53637 -0.224,-0.22399 -1.3479,1.18696 -2.4975,3.13544 -1.1496,1.94849 -1.7679,3.53985 -1.374,3.53638 0.394,-0.003 1.5179,-1.41443 2.4975,-3.13545 z m -319.2812,-1.85823 c -0.825,-0.53316 -1.95,-0.96937 -2.5,-0.96937 -0.55,0 -0.325,0.43621 0.5,0.96937 0.825,0.53316 1.95,0.96937 2.5,0.96937 0.55,0 0.325,-0.43621 -0.5,-0.96937 z m -6.4411,-2.5318 c -1.0677,-0.80751 -2.4177,-1.45389 -3,-1.4364 -0.5824,0.0175 -0.1854,0.6925 0.8822,1.5 1.0677,0.80751 2.4177,1.45389 3,1.4364 0.5824,-0.0175 0.1854,-0.6925 -0.8822,-1.5 z m -261.55898,-0.4682 c 0,-0.55 -0.45,-1 -1,-1 -0.55,0 -1,0.45 -1,1 0,0.55 0.45,1 1,1 0.55,0 1,-0.45 1,-1 z m 116.78654,-11.25 c 2.1988,-5.6375 4.7848,-12.725 5.7466,-15.75 0.96184,-3.025 2.16894,-6.33522 2.68254,-7.35604 0.7045,-1.40036 0.3816,-2.44378 -1.3153,-4.25 -2.83844,-3.02141 -3.66524,-3.00416 -5.08234,0.10604 -1.6723,3.67026 -3.1727,3.07291 -2.5117,-1 0.5513,-3.39767 -0.4656,-4.66936 -1.8904,-2.36397 -0.4664,0.75458 -1.3504,0.33485 -2.6329,-1.25 -1.3059,-1.61382 -2.0957,-1.98148 -2.4403,-1.13603 -0.7062,1.73286 -4.2824,1.57082 -4.9716,-0.22526 -0.4976,-1.29665 -0.9189,-1.29285 -3.4798,0.0315 -2.2339,1.15518 -2.7966,2.02432 -2.4118,3.72526 0.2761,1.2202 1.1724,7.84065 1.9919,14.71211 0.8194,6.87145 1.8832,12.62465 2.3639,12.78488 0.4807,0.16023 0.6787,1.3127 0.4401,2.56105 -0.2386,1.24834 -0.061,3.69271 0.3953,5.43193 0.6546,2.49609 1.1452,2.95855 2.3293,2.1954 1.1321,-0.72972 1.2026,-1.15952 0.2876,-1.7526 -1.465,-0.94952 -0.5476,-5.21427 1.1216,-5.21427 0.6468,0 1.7176,2.025 2.3795,4.5 0.662,2.475 1.6078,4.5 2.1017,4.5 0.494,0 2.6972,-4.6125 4.8961,-10.25 z m 138.65464,8.7818 c -1.0676,-0.8075 -2.8636,-1.4825 -3.9911,-1.5 -1.1275,-0.0175 -2.4775,-0.436 -3,-0.93003 -1.281,-1.21122 -13.7448,-6.10345 -15.5285,-6.09518 -0.7818,0.004 -0.072,0.90066 1.5785,1.99341 1.65,1.09275 3.743,1.98979 4.651,1.99341 0.9081,0.004 4.7331,1.34046 8.5,2.97074 7.586,3.28313 10.9544,3.96096 7.7901,1.56765 z m -266.44118,-2.5318 c 0,-0.55 -0.1985,-1 -0.441,-1 -0.2426,0 -0.7191,0.45 -1.059,1 -0.34,0.55 -0.1415,1 0.4409,1 0.5825,0 1.0591,-0.45 1.0591,-1 z m 5,-8 c 0,-1.1 -0.6352,-2 -1.4116,-2 -1.1491,0 -1.3925,1.37268 -0.6649,3.75 0.042,0.1375 0.5265,0.25 1.0765,0.25 0.55,0 1,-0.9 1,-2 z m 47.00004,-0.55902 c 0,-0.85746 -0.45,-1.2809 -1,-0.94098 -0.55,0.33992 -1,1.04148 -1,1.55902 0,0.51754 0.45,0.94098 1,0.94098 0.55,0 1,-0.70156 1,-1.55902 z m -51.00004,-4.51658 c 0,-0.4739 -0.675,-0.60261 -1.5,-0.28603 -0.825,0.31659 -1.5,0.96334 -1.5,1.43723 0,0.4739 0.675,0.60261 1.5,0.28603 0.825,-0.31659 1.5,-0.96334 1.5,-1.43723 z m 53.50004,0.0756 c 0.3399,-0.55 0.1414,-1 -0.441,-1 -0.5825,0 -1.059,0.45 -1.059,1 0,0.55 0.1984,1 0.4409,1 0.2426,0 0.7191,-0.45 1.0591,-1 z m 6.7669,-8.95317 c 0.2916,-2.17425 1.5211,-5.43675 2.7323,-7.25 2.1963,-3.28812 2.1926,-3.28696 -1.3985,0.43848 -2.7428,2.84531 -3.6007,4.57276 -3.6007,7.25 0,4.77161 1.6098,4.46022 2.2669,-0.43848 z m 140.30694,-0.92743 c -0.2993,-0.48433 -1.6798,-1.09768 -3.0678,-1.363 -2.0433,-0.39061 -2.3082,-0.22304 -1.3923,0.8806 1.228,1.47963 5.3521,1.92569 4.4601,0.4824 z m -10.8446,-3.72357 c -0.3323,-0.33229 -1.1948,-0.36781 -1.9167,-0.0789 -0.7977,0.31922 -0.5608,0.55618 0.6042,0.60416 1.0541,0.0434 1.6448,-0.19293 1.3125,-0.52522 z m -10.1562,-4.9173 c -2.0551,-1.55476 -3.2035,-1.30764 -2.1141,0.45494 0.3625,0.58659 1.4201,1.05222 2.3501,1.03473 1.4847,-0.0279 1.4559,-0.2097 -0.236,-1.48967 z m -10.4575,-4.58488 c -1.1424,-1.22625 -2.4686,-1.79345 -3.174,-1.35749 -0.8421,0.52042 -0.4841,1.15217 1.1734,2.07092 3.4956,1.93763 4.2274,1.67669 2.0006,-0.71343 z m -97.36574,-9.47712 c -0.9529,-0.95296 -2.8635,0.5906 -2.1533,1.7397 0.4221,0.683 0.9815,0.66575 1.6997,-0.0524 0.5887,-0.58876 0.7929,-1.34803 0.4536,-1.68727 z m 75.70754,-0.34743 c 0.3164,-0.512 0.1179,-1.21356 -0.441,-1.55902 -0.559,-0.34546 -1.0163,0.0734 -1.0163,0.9309 0,1.75653 0.6,2.01516 1.4573,0.62812 z m -7.4573,-2.17609 c 0,-0.49115 -0.675,-0.89301 -1.5,-0.89301 -0.825,0 -1.5,0.66088 -1.5,1.46862 0,0.89459 0.5863,1.24363 1.5,0.89301 0.825,-0.31659 1.5,-0.97746 1.5,-1.46862 z m -23.57734,-7.01801 c -0.2974,-0.48125 -1.4142,-0.875 -2.4818,-0.875 -1.0675,0 -1.9409,0.39375 -1.9409,0.875 0,0.48125 1.1168,0.875 2.4817,0.875 1.365,0 2.2384,-0.39375 1.941,-0.875 z m 22.07734,0.125 c -2.7491,-1.18132 -4.328,-1.18132 -2.5,0 0.825,0.53316 2.175,0.94464 3,0.9144 0.989,-0.0362 0.8187,-0.34772 -0.5,-0.9144 z m 477.0181,-4.25 c -1.435,-6.7258 -4.5583,-13.74174 -5.2683,-11.83427 -0.2898,0.77866 0.4143,3.25366 1.5647,5.5 1.1503,2.24635 2.3581,5.77177 2.6838,7.83427 0.3258,2.0625 0.9405,3.75 1.3661,3.75 0.4256,0 0.2698,-2.3625 -0.3463,-5.25 z m -472.5168,-69.75 c 0.9688,0 0.6937,-4.63831 -0.3363,-5.66827 -0.3658,-0.36578 -0.665,0.75994 -0.665,2.5016 0,1.74167 -0.4079,3.16667 -0.9064,3.16667 -0.4985,0 -0.6203,1.0125 -0.2705,2.25 l 0.6359,2.25 0.34,-2.25 c 0.187,-1.2375 0.7281,-2.25 1.2023,-2.25 z m -157.44998,-2.91675 c -0.2646,-0.4282 -0.7304,-7.70961 -1.0351,-16.1809 -0.3047,-8.47129 -0.7012,-16.97735 -0.8812,-18.90235 -1.164,-12.45143 -1.6694,-18.37961 -2.1315,-25 -0.464,-6.64786 -0.9583,-10.90001 -3.081,-26.5 -0.4575,-3.36272 -1.4459,-7.93228 -3.9874,-18.43456 -0.2083,-0.86099 -0.8673,-3.59044 -1.4644,-6.06544 -0.597,-2.475 -1.4746,-4.89233 -1.95,-5.37186 -0.4755,-0.47952 -0.644,-1.4465 -0.3745,-2.14884 0.2695,-0.70235 0.01,-1.57407 -0.5782,-1.93717 -0.5875,-0.36309 -1.0681,-1.57529 -1.0681,-2.69378 0,-3.02788 -5.03048,-16.62873 -6.6464,-17.96983 -2.33644,-1.93907 -2.72989,-0.21442 -1.56639,6.86621 1.14536,6.97028 5.03571,38.29169 5.74524,46.25527 0.22052,2.475 1.34415,9.45 2.49705,15.5 1.1528,6.05 2.3503,12.90351 2.6611,15.23003 0.3107,2.32652 0.9251,4.00748 1.3652,3.73548 1.0281,-0.63541 2.2693,3.1994 1.4596,4.50956 -0.3376,0.54613 0.1414,5.38766 1.0643,10.75895 0.9229,5.37129 1.6843,12.12848 1.692,15.01598 0.01,2.8875 0.3997,5.25 0.8711,5.25 0.4715,0 0.8572,0.87344 0.8572,1.94098 0,1.06754 0.4108,2.1949 0.913,2.50524 0.5021,0.31034 1.2133,2.4744 1.5803,4.80902 0.9229,5.86995 2.7053,10.74004 3.7046,10.12242 0.4591,-0.28372 0.6182,-0.8662 0.3535,-1.29441 z M 1016.6961,230.7107 c 0,-1.61754 -0.45,-2.94098 -1,-2.94098 -0.55,0 -1,1.60156 -1,3.55902 0,2.11803 0.4048,3.30878 1,2.94098 0.55,-0.33992 1,-1.94148 1,-3.55902 z M 860.04752,220.24345 c -0.3086,-0.80423 -0.9443,-1.22541 -1.4126,-0.93595 -0.4684,0.28945 -0.5991,1.18428 -0.2905,1.98851 0.3086,0.80423 0.9443,1.22541 1.4127,0.93595 0.4683,-0.28945 0.599,-1.18428 0.2904,-1.98851 z m -28.35153,-5.97372 c 0,-0.825 -0.45,-1.5 -1,-1.5 -0.55,0 -1,0.675 -1,1.5 0,0.825 0.45,1.5 1,1.5 0.55,0 1,-0.675 1,-1.5 z m 4.68313,-0.6875 c -0.3192,-0.79773 -0.5562,-0.56078 -0.6042,0.60417 -0.043,1.05416 0.1929,1.64479 0.5252,1.3125 0.3323,-0.3323 0.3678,-1.1948 0.079,-1.91667 z m -1.079,-4.54167 c -1.0165,-1.01651 -1.85521,0.51389 -1.0212,1.86338 0.63,1.01942 0.8656,1.02021 1.2043,0.004 0.2316,-0.69479 0.1492,-1.53513 -0.1831,-1.86742 z m -0.524,-7.02083 c -0.8316,-1.4277 -1.01931,-1.1054 -1.01931,1.75 0,2.8554 0.18771,3.1777 1.01931,1.75 0.6923,-1.18874 0.6923,-2.31126 0,-3.5 z m -5.39702,-0.4375 c -0.31922,-0.79773 -0.55618,-0.56078 -0.60416,0.60417 -0.0434,1.05416 0.19293,1.64479 0.52522,1.3125 0.33229,-0.3323 0.36781,-1.1948 0.0789,-1.91667 z m 4.24322,-8.82598 c -0.50948,-1.64259 -1.32632,-4.27168 -1.8152,-5.84244 -0.48888,-1.57075 -0.71003,-3.93325 -0.49144,-5.25 0.3848,-2.31798 -2.05851,-6.7886 -3.12647,-5.72063 -0.87244,0.87243 1.17755,13.10283 2.87862,17.17406 1.86255,4.45772 3.95729,4.1617 2.55449,-0.36099 z m -7.24322,-4.17402 c -0.31922,-0.79773 -0.55618,-0.56078 -0.60416,0.60417 -0.0434,1.05416 0.19293,1.64479 0.52522,1.3125 0.33229,-0.3323 0.36781,-1.1948 0.0789,-1.91667 z m 181.8179,-4.5625 c -0.9208,-5.85588 -2.7275,-11.25 -3.768,-11.25 -0.5208,0 -0.6433,0.7875 -0.2722,1.75 0.3711,0.9625 1.1557,3.775 1.7435,6.25 1.6011,6.74174 1.6863,7 2.3097,7 0.3172,0 0.3113,-1.6875 -0.013,-3.75 z m -151.50098,-4.69098 c 0,-0.24254 -0.45,-0.7191 -1,-1.05902 -0.55,-0.33992 -1,-0.14148 -1,0.44098 0,0.58246 0.45,1.05902 1,1.05902 0.55,0 1,-0.19844 1,-0.44098 z m -28.00003,-9.81562 c 0,-1.24113 -0.44425,-3.80563 -0.98723,-5.69888 -0.70269,-2.45014 -0.65967,-3.64472 0.14928,-4.14467 0.79303,-0.49012 0.89203,-2.47004 0.32756,-6.55113 -0.44492,-3.2168 -1.0746,-8.77372 -1.39928,-12.34872 -0.38428,-4.23127 -1.00535,-6.41983 -1.77939,-6.27031 -1.53667,0.29683 -2.62789,-3.15571 -1.81094,-5.72969 0.34913,-1.1 0.2026,-2 -0.32562,-2 -1.6686,0 -2.04992,2.60774 -1.03914,7.1064 0.53789,2.39396 0.75077,5.22151 0.47307,6.28344 -0.27771,1.06193 0.32459,6.0543 1.33842,11.09415 1.01384,5.03985 1.6232,10.31497 1.35413,11.72247 -0.26906,1.40751 0.003,2.86341 0.60497,3.23534 0.60179,0.37193 1.09417,1.77468 1.09417,3.11722 0,1.34254 0.45,2.44098 1,2.44098 0.55,0 1,-1.01547 1,-2.2566 z m 173.12421,-3.01007 c -0.9877,-0.98026 -1.1025,-0.8654 -0.5598,0.5598 0.3755,0.98622 0.9346,1.54122 1.2425,1.23333 0.3079,-0.30789 7e-4,-1.11479 -0.6827,-1.79313 z m -144.71638,-7.88238 c -0.3905,-0.63198 -0.7967,-2.31948 -0.9024,-3.75 -0.3403,-4.60074 -0.4879,-5.10095 -1.5054,-5.10095 -1.312,0 -1.2876,5.59422 0.035,8.06574 0.5693,1.06384 1.4959,1.93426 2.059,1.93426 0.5631,0 0.7042,-0.51707 0.3137,-1.14905 z m -3.3141,-15.15717 c -1.3059,-1.30594 -1.4875,0.14136 -0.3733,2.97443 0.6949,1.76676 0.7337,1.7659 1.0938,-0.0244 0.2053,-1.02092 -0.1189,-2.34842 -0.7205,-2.95 z m -28.09373,-22.63476 c 0,-0.51754 -0.45,-1.2191 -1,-1.55902 -0.55,-0.33992 -1,0.0835 -1,0.94098 0,0.85746 0.45,1.55902 1,1.55902 0.55,0 1,-0.42344 1,-0.94098 z m 0,-5.85902 c 0,-2.99223 -2.02275,-4.32011 -3.82913,-2.51373 -1.41027,1.41027 -1.37933,1.68813 0.32684,2.93572 2.53239,1.85172 3.50229,1.73486 3.50229,-0.42199 z m -562,566.87362 c -18.58229,-4.09816 -35.7801,-10.35771 -43.41375,-15.80146 -2.70257,-1.92727 -5.96475,-3.56443 -7.2493,-3.63814 -1.28454,-0.0737 -2.33586,-0.46237 -2.33624,-0.8637 -3.9e-4,-0.40132 -1.91321,-1.68749 -4.25071,-2.85816 -2.3375,-1.17067 -6.35573,-3.87982 -8.92941,-6.02032 -2.57367,-2.14051 -5.16117,-3.89184 -5.75,-3.89184 -0.58882,0 -1.07059,-0.40122 -1.07059,-0.89159 0,-0.49038 -1.14875,-1.17991 -2.55278,-1.5323 -1.41422,-0.35495 -3.43525,-2.13637 -4.53136,-3.99414 -1.08821,-1.84438 -3.8681,-4.64235 -6.17753,-6.2177 -4.36497,-2.97751 -8.20343,-6.02475 -10.12135,-8.03505 -0.61434,-0.64393 -4.15448,-4.32861 -7.86698,-8.18818 -3.7125,-3.85958 -6.75,-7.41919 -6.75,-7.91025 0,-0.49106 -1.125,-1.49491 -2.5,-2.23079 -1.375,-0.73588 -2.5,-1.87814 -2.5,-2.53835 0,-1.15011 -6.11794,-9.31215 -10.66805,-14.23242 -2.98352,-3.22623 -13.66837,-27.80012 -16.77519,-38.58095 -3.89104,-13.50215 -4.67226,-20.45719 -4.50387,-40.09703 0.15173,-17.69698 0.91547,-23.86246 4.40384,-35.55125 0.90277,-3.025 2.03603,-7.3 2.51835,-9.5 0.48232,-2.2 1.54963,-5.29349 2.3718,-6.87442 0.82217,-1.58093 1.26625,-3.47016 0.98684,-4.19828 -0.2794,-0.72812 0.43121,-2.33198 1.57913,-3.56414 1.14793,-1.23216 2.08715,-3.1803 2.08715,-4.32922 0,-1.14891 0.60754,-2.97656 1.3501,-4.06143 0.74255,-1.08488 3.46766,-5.94457 6.05578,-10.79931 8.40184,-15.75996 21.48278,-34.18882 26.25198,-36.98466 0.76131,-0.4463 1.1651,-1.16598 0.8973,-1.59929 -0.26779,-0.4333 0.58484,-1.3614 1.89474,-2.06244 1.3099,-0.70103 2.59232,-2.08024 2.84981,-3.0649 0.25749,-0.98466 2.2079,-2.9029 4.33423,-4.26275 2.12633,-1.35985 5.18775,-3.87346 6.80315,-5.58581 1.6154,-1.71234 3.4154,-3.11939 4,-3.12676 1.05534,-0.0133 3.67598,-1.90454 10.10871,-7.29509 1.84331,-1.54467 3.59959,-2.78217 3.90284,-2.75 1.93586,0.20539 2.60048,-0.053 2.12309,-0.82544 -0.30047,-0.48617 0.91047,-1.43893 2.69098,-2.11725 7.04051,-2.6822 9.54482,-4.05485 10.11668,-5.54511 0.65994,-1.71976 9.43736,-5.97029 10.38072,-5.02693 0.83113,0.83114 -2.90418,3.50293 -4.95109,3.54143 -1.68403,0.0317 -3.40366,1.7705 -2.57271,2.60144 0.24011,0.24012 3.54767,-1.09768 7.35013,-2.97288 3.80246,-1.8752 9.04467,-4.1853 11.64937,-5.13355 2.6047,-0.94825 5.24318,-2.33544 5.86331,-3.08264 0.62012,-0.7472 1.53766,-1.10506 2.03896,-0.79523 0.50131,0.30983 0.78782,0.0312 0.6367,-0.6191 -0.25193,-1.08409 8.98028,-4.87239 12.03424,-4.93808 2.3531,-0.0506 0.24152,1.80183 -2.82049,2.47436 -1.64369,0.36101 -2.98853,1.12689 -2.98853,1.70194 0,0.66605 1.17961,0.77458 3.25,0.29901 1.7875,-0.41059 5.05,-1.03852 7.25,-1.3954 2.90226,-0.4708 3.92765,-1.08742 3.73638,-2.24688 -0.19444,-1.17866 0.85526,-1.76644 4,-2.23983 2.34499,-0.353 6.01254,-0.91861 8.1501,-1.25693 2.7516,-0.43549 3.68339,-0.2865 3.19098,0.51023 -1.03453,1.67391 0.5047,1.36097 2.59053,-0.52669 1.45397,-1.31582 3.50505,-1.59011 10.07874,-1.34782 4.5393,0.16731 10.27827,0.26482 12.75327,0.21668 2.475,-0.0482 3.9375,0.14587 3.25,0.43115 -3.89685,1.61699 0.73798,4.35202 7.375,4.35202 2.89532,0 3.15382,-1.98357 0.35392,-2.71576 -1.53867,-0.40237 -1.76079,-0.84214 -0.9306,-1.84246 0.78829,-0.94984 0.78132,-1.89158 -0.0252,-3.39852 -0.6136,-1.14653 -0.87478,-2.47431 -0.5804,-2.95062 0.29437,-0.47631 -0.1553,-1.43911 -0.99927,-2.13955 -0.84397,-0.70043 -1.31577,-1.84352 -1.04843,-2.54019 0.26734,-0.69667 -0.16218,-1.80467 -0.95449,-2.46223 -0.79228,-0.65756 -1.44053,-1.97766 -1.44053,-2.93357 0,-0.9559 -1.0125,-3.2633 -2.25,-5.12755 -1.2375,-1.86425 -2.91866,-4.73955 -3.7359,-6.38955 -0.81725,-1.65 -3.57744,-6.6 -6.13376,-11 -10.46591,-18.01419 -15.36942,-27.22948 -25.73256,-48.35982 -0.90628,-1.8479 -2.15139,-3.56094 -2.7669,-3.80676 -0.61552,-0.24583 -5.09654,0.29835 -9.95782,1.20927 -6.19852,1.1615 -14.45202,1.66324 -27.63087,1.67971 -17.23438,0.0215 -20.70429,0.47783 -17.70943,2.32875 0.59552,0.36805 1.94187,2.67342 2.9919,5.12304 1.13724,2.65306 2.3488,4.18213 2.99652,3.78182 1.07189,-0.66246 18.92882,16.86144 18.92882,18.57579 0,1.61927 7.36711,8.04131 8.65689,7.54637 0.70348,-0.26995 1.52593,-0.0914 1.82766,0.39683 0.75314,1.21861 -2.59493,8.025 -3.94752,8.025 -1.39531,0 -4.53506,3.63598 -4.54335,5.26143 -0.009,1.7998 -5.66795,4.73857 -9.12438,4.73857 -3.38992,0 -8.38597,-2.31392 -9.57202,-4.43328 -0.77536,-1.38548 -17.43178,-19.12434 -35.62349,-37.93851 -4.85441,-5.02051 -9.68739,-10.19565 -10.73996,-11.5003 -5.00959,-6.2094 -15.38513,-14.00248 -25.1571,-18.89555 -12.3207,-6.16928 -12.81485,-6.89281 -13.52918,-19.80968 -0.48576,-8.78359 -0.41675,-9.16258 2.13281,-11.71213 3.90961,-3.90961 9.47235,-5.31441 13.72578,-3.46627 1.86662,0.81106 4.65903,1.99085 6.20534,2.62176 1.54632,0.63091 5.82132,3.54117 9.5,6.46724 3.67869,2.92607 8.82351,6.54061 11.43295,8.03231 2.60944,1.49171 5.41325,4.00554 6.23069,5.58629 1.77821,3.43869 5.64792,4.4614 23.48572,6.20693 9.03313,0.88395 16.26059,0.8832 30.1643,-0.003 10.05664,-0.64109 18.63391,-1.51473 19.0606,-1.94142 0.42668,-0.42668 -0.60485,-4.36194 -2.29229,-8.74502 -11.48828,-29.84048 -16.91537,-58.03423 -16.86991,-87.6393 0.0278,-18.08648 1.76986,-26.31892 7.36566,-34.807141 2.00824,-3.04629 3.6108,-6.73403 3.6108,-8.30902 0,-1.5575 0.36803,-2.60436 0.81785,-2.32636 0.44981,0.278 1.46231,-0.42252 2.25,-1.55672 3.83499,-5.52204 5.66374,-7.27017 11.91093,-11.38583 3.71078,-2.44468 7.1461,-4.44641 7.63405,-4.44829 0.48794,-0.002 4.26217,-1.45031 8.38717,-3.21872 7.204,-3.08838 8.01307,-3.21268 20.5,-3.14954 12.16308,0.0615 13.73932,0.30398 24.48395,3.76649 16.48291,5.3117 30.31977,12.98395 36.62251,20.30642 6.17023,7.16853 8.91572,11.10548 9.85697,14.13459 0.65921,2.121441 0.53564,2.234041 -1.3463,1.226861 -1.71528,-0.917991 -1.97147,-0.846671 -1.48764,0.41418 0.32147,0.83772 0.98634,1.52314 1.4775,1.52314 1.40314,0 5.02324,3.98027 4.45553,4.89883 -0.28073,0.45424 0.33846,3.23636 1.37598,6.1825 1.73241,4.91935 1.91395,5.11425 2.22395,2.38764 0.49701,-4.37151 2.23782,-3.22402 3.00274,1.97932 0.36585,2.48872 1.39044,5.2502 2.27687,6.13663 1.09468,1.09468 1.43881,2.6227 1.07276,4.76338 -0.2964,1.73344 -0.95689,6.9767 -1.46774,11.6517 -1.07016,9.79347 -2.60527,15.21627 -8.63409,30.5 -2.38648,6.05 -4.63474,12.25846 -4.99612,13.79657 -0.36139,1.53811 -0.87858,2.57505 -1.14933,2.30431 -0.27074,-0.27075 -2.33494,2.2958 -4.58709,5.70343 -5.26771,7.97031 -24.68704,27.08128 -29.0479,28.58664 -1.71588,0.59233 -15.81236,9.14939 -18.44503,11.19679 -1.27187,0.98912 -3.97187,2.32774 -6,2.97472 -2.02814,0.64698 -6.39146,2.40782 -9.69627,3.91297 -3.30481,1.50516 -7.12981,3.05661 -8.5,3.44766 -8.42362,2.40411 -9.64058,4.10992 -6.20111,8.69205 0.98458,1.31167 3.30191,5.42236 5.14962,9.13486 1.84771,3.7125 3.74214,6.75 4.20985,6.75 0.46772,0 0.85039,0.83931 0.85039,1.86514 0,1.02583 0.9,3.00931 2,4.40773 1.1,1.39842 2,2.785 2,3.08128 0,0.29628 1.67536,3.37531 3.72302,6.84227 2.04766,3.46697 4.41016,7.53321 5.25,9.03608 4.38329,7.84382 8.0661,13.67365 9.00411,14.25337 0.57925,0.35799 1.74377,2.30762 2.58783,4.33251 1.62186,3.8908 9.05617,15.98789 10.86631,17.68162 1.98143,1.85401 7.56873,10.3172 7.56873,11.4645 0,1.525 5.36281,3.62627 11.5,4.50597 2.75,0.39419 5.52912,1.15198 6.17581,1.68399 0.6467,0.53201 1.7717,0.85879 2.5,0.72618 0.72831,-0.13261 3.34919,0.32585 5.82419,1.01881 2.475,0.69296 6.975,1.94511 10,2.78255 3.025,0.83744 7.3,2.35412 9.5,3.37039 2.2,1.01627 7.15,3.22403 11,4.90613 8.20133,3.58323 17.8959,8.59853 21.65437,11.20248 1.4599,1.01145 3.34585,1.839 4.19098,1.839 0.84514,0 1.81473,0.45 2.15465,1 0.33992,0.55 1.33892,1 2.21999,1 2.42513,0 15.09743,10.00665 21.06305,16.63238 12.79858,14.21476 17.12584,21.23161 22.40778,36.33515 2.52954,7.23313 2.95895,9.93007 2.94561,18.5 -0.0109,6.97948 -0.60878,12.04334 -1.96482,16.64042 -2.31327,7.84218 -2.9987,9.19974 -9.39557,18.60876 -7.79803,11.46996 -16.85834,19.13133 -31.06985,26.27258 -6.71341,3.37348 -14.45619,6.70299 -17.20619,7.39892 -5.7896,1.46515 -5.62029,0.66622 -3.62644,17.11179 1.74125,14.36214 1.52288,41.67439 -0.42667,53.36525 -2.39797,14.37988 -6.99089,29.47347 -12.21285,40.13475 -4.10152,8.37375 -5.96203,10.80994 -15.6936,20.54945 -15.87528,15.88825 -26.02233,22.00774 -48.54044,29.27386 -19.60903,6.32741 -25.57868,7.36939 -44.5,7.76736 -13.89509,0.29225 -18.55245,0.0152 -25.5,-1.51705 z m 46.86732,-32.01886 c 9.16187,-2.27811 21.61655,-7.42559 28.337,-11.7116 2.36263,-1.50677 6.39225,-3.89774 8.95472,-5.31327 3.90883,-2.15926 8.116,-6.3592 17.07243,-17.04309 5.66846,-6.76177 12.76196,-18.53196 12.77469,-21.19696 0.003,-0.70941 0.73979,-2.63984 1.63644,-4.28984 0.89665,-1.65 2.67785,-8.175 3.95822,-14.5 2.56469,-12.66954 3.14861,-32.15646 1.37837,-46 -1.67706,-13.11482 -1.52167,-12.80564 -7.30751,-14.53927 -2.84442,-0.85228 -6.97168,-2.6617 -9.17168,-4.02093 -2.2,-1.35922 -4.7875,-2.74171 -5.75,-3.07219 -0.9625,-0.33048 -1.75,-0.98779 -1.75,-1.46069 0,-0.47289 -2.26398,-3.23291 -5.03107,-6.13336 -7.27744,-7.62821 -9.32873,-12.36545 -8.48865,-19.60366 0.75419,-6.49813 1.83137,-9.09269 2.994,-7.21152 0.87529,1.41625 4.52572,-1.49827 4.52572,-3.61337 0,-2.22434 1.39126,-1.55275 5.5,2.65499 2.14824,2.2 4.33072,4 4.84996,4 0.51923,0 2.92757,1.62534 5.35186,3.61186 5.01647,4.11062 6.48285,3.78244 4.02729,-0.90134 -0.92574,-1.76578 -2.12105,-5.23933 -2.65625,-7.71898 -0.53519,-2.47966 -1.67052,-6.1777 -2.52297,-8.21788 -0.85244,-2.04018 -1.54989,-4.89194 -1.54989,-6.33725 0,-1.4453 -0.61784,-3.82226 -1.37297,-5.28212 -2.67092,-5.16357 -4.62703,-10.24457 -4.62703,-12.01874 0,-0.98813 -1.12312,-4.01036 -2.49581,-6.71607 -1.3727,-2.70571 -2.4977,-5.44551 -2.5,-6.08844 -0.002,-0.64293 -0.67805,-2.44293 -1.50167,-4 -0.82361,-1.55707 -4.0321,-9.50288 -7.12998,-17.65735 -3.09788,-8.15447 -8.04417,-19.17947 -10.99176,-24.5 -2.9476,-5.32053 -5.3641,-10.4361 -5.37002,-11.36793 -0.006,-0.93183 -1.02326,-2.84525 -2.26076,-4.25206 -1.93462,-2.1993 -3.37134,-2.65092 -10.25,-3.22206 -13.20389,-1.09632 -27.36789,-0.15033 -46.5,3.10567 -17.63007,3.00038 -39.92688,10.93701 -55.06822,19.60173 -4.76802,2.72853 -9.12312,4.96096 -9.67801,4.96096 -0.55488,0 -1.61987,0.7362 -2.36665,1.63601 -0.74677,0.8998 -3.16437,2.77636 -5.37244,4.17013 -4.35028,2.74598 -6.27292,4.49419 -20.26468,18.42634 -5.0875,5.06582 -9.25,9.75526 -9.25,10.42096 0,0.6657 -1.24317,2.09559 -2.76261,3.17752 -1.51944,1.08194 -3.36506,3.63321 -4.10139,5.66949 -0.73633,2.03628 -2.19316,4.55671 -3.23739,5.60094 -1.04424,1.04424 -1.89861,2.57361 -1.89861,3.39861 0,0.825 -0.45,1.5 -1,1.5 -0.55,0 -1,0.88448 -1,1.96552 0,1.08104 -1.35,3.34655 -3,5.03448 -1.65,1.68793 -3,3.92688 -3,4.97546 0,1.04858 -0.39899,2.15309 -0.88664,2.45448 -0.48765,0.30138 -1.19517,2.1926 -1.57227,4.20271 -0.3771,2.01011 -1.33225,4.30136 -2.12255,5.09167 -0.79031,0.79031 -1.18123,1.85064 -0.86871,2.3563 0.31251,0.50566 0.0917,0.91938 -0.49081,0.91938 -0.58246,0 -1.05902,0.49449 -1.05902,1.09887 0,0.60438 -0.62224,2.51688 -1.38276,4.25 -3.35208,7.63898 -3.95451,10.31244 -3.78081,16.77853 0.12088,4.50001 -0.20051,6.8726 -0.93095,6.8726 -1.2162,0 -0.82368,6.13193 0.60261,9.41404 0.5519,1.27 0.47637,1.69439 -0.22447,1.26125 -1.98508,-1.22684 -2.1858,3.64917 -0.31892,7.74723 1.70926,3.75207 3.27558,11.64791 4.72304,23.80896 0.31327,2.63196 0.98734,4.46933 1.51909,4.14069 0.52576,-0.32493 0.81602,0.2459 0.64502,1.26852 -0.171,1.02262 0.24238,3.32181 0.91862,5.10931 0.67624,1.7875 1.75,4.63833 2.38613,6.33517 0.63613,1.69684 1.87363,3.8022 2.75,4.67857 0.87637,0.87637 1.60141,1.85055 1.6112,2.16483 0.0417,1.33866 5.04772,10.85395 7.40303,14.07143 7.07111,9.65957 26.02709,30.38541 26.94821,29.46429 0.24836,-0.24836 1.02072,0.36101 1.71634,1.35415 0.69563,0.99314 3.21099,3.12778 5.5897,4.74364 2.37871,1.61586 5.14508,3.95042 6.1475,5.18792 1.00242,1.2375 2.28342,2.25 2.84667,2.25 0.56324,0 4.69308,2.38693 9.17742,5.3043 19.06596,12.4037 34.82755,18.88357 56.65333,23.29119 9.42885,1.90411 31.24142,1.1014 41.86732,-1.54073 z m 54.13268,-159.49574 c 0,-1.05548 -1.91911,-1.49891 -2.48992,-0.57533 -0.34546,0.55897 0.0734,1.01631 0.9309,1.01631 0.85746,0 1.55902,-0.19844 1.55902,-0.44098 z m 45.12288,-4.5845 c 11.10324,-5.13794 23.63315,-16.59353 28.86205,-26.38741 4.9249,-9.22446 8.15212,-19.33457 7.43414,-23.28936 -1.22178,-6.72977 -7.36727,-16.38427 -17.0579,-26.79775 -1.02364,-1.1 -3.43617,-4.3509 -5.36117,-7.22421 -2.49116,-3.71839 -4.15783,-5.23165 -5.78222,-5.25 -1.37365,-0.0155 -2.58474,-0.84356 -3.0421,-2.07993 -0.72553,-1.9613 -3.00339,-3.6507 -7.92568,-5.87817 -1.2375,-0.56 -2.25,-1.47933 -2.25,-2.04294 0,-0.56361 -0.49303,-1.02475 -1.09563,-1.02475 -0.6026,0 -2.50934,-1.0125 -4.23722,-2.25 -3.15771,-2.26155 -9.87362,-5.59934 -12.66715,-6.29553 -0.825,-0.2056 -6.8082,-2.22257 -13.296,-4.48215 -6.4878,-2.25957 -12.16252,-3.96522 -12.61049,-3.79032 -0.44797,0.1749 2.44703,7.968 6.43333,17.318 15.13367,35.49656 30.02978,77.67106 34.87867,98.75 0.75545,3.28408 1.9448,3.39574 7.71737,0.72452 z m 16.37712,-3.44951 c 3.90298,-3.5612 3.86053,-3.54827 -1.75,0.53278 -5.65463,4.11313 -7.44105,5.92847 -4,4.06476 0.9625,-0.5213 3.55,-2.5902 5.75,-4.59754 z m 15.11014,-17.01166 c 1.86442,-2.74266 3.37184,-5.66766 3.34982,-6.5 -0.022,-0.83234 -0.75888,-0.16335 -1.63748,1.48665 -0.87859,1.65 -3.69652,5.7 -6.26207,9 -2.56554,3.3 -5.0096,6.675 -5.43124,7.5 -1.37989,2.69997 6.50832,-6.37822 9.98097,-11.48665 z M 192.25329,382.35149 c 1.06675,-0.78003 1.66651,-1.69128 1.33279,-2.025 -0.33372,-0.33372 -1.68301,0.28951 -2.99843,1.38497 -2.71677,2.26247 -1.29849,2.80746 1.66564,0.64003 z m 13.39518,-7.93486 c 4.25742,-2.3942 8.82229,-4.62466 10.14414,-4.95657 3.17101,-0.79622 6.58613,-3.34091 5.68845,-4.23859 -0.90441,-0.90441 -21.17957,9.22171 -23.41901,11.69626 -2.54473,2.8119 -0.89282,2.26729 7.58642,-2.5011 z m 27.57398,-8.45377 c -0.30789,-0.30789 -1.11479,-6.4e-4 -1.79313,0.68278 -0.98026,0.98762 -0.8654,1.10248 0.5598,0.5598 0.98622,-0.37553 1.54122,-0.93469 1.23333,-1.24258 z m -5.7967,-1.57703 c 6.49294,-2.3833 12.70073,-3.97766 14.52024,-3.72928 1.17831,0.16085 1.75,-0.43499 1.75,-1.82396 0,-2.16114 -1.44226,-2.77431 -2.5,-1.06286 -0.33992,0.55 -1.64148,1 -2.89235,1 -1.25087,0 -2.61182,0.3375 -3.02432,0.75 -0.4125,0.4125 -1.05,0.78771 -1.41666,0.83379 -0.36667,0.0461 -1.92402,0.605 -3.46077,1.24202 -1.53676,0.63702 -3.89926,1.4356 -5.25,1.77462 -1.35075,0.33901 -2.4559,1.0176 -2.4559,1.50798 0,1.16858 0.28603,1.1388 4.72976,-0.49231 z m 26.77024,-8.6161 c -0.33992,-0.55 -1.06803,-1 -1.61803,-1 -0.55,0 -0.72189,0.45 -0.38197,1 0.33992,0.55 1.06803,1 1.61803,1 0.55,0 0.72189,-0.45 0.38197,-1 z m 112.69721,-0.47361 c 0.94932,-1.32565 -1.11727,-2.49254 -4.44721,-2.51108 -1.5125,-0.008 -2.75,-0.46531 -2.75,-1.01531 0,-1.6074 -2.1678,-1.15172 -3.56802,0.75 -1.13428,1.54055 -0.90811,1.88441 1.88976,2.87306 3.7411,1.32195 7.89196,1.27674 8.87547,-0.0967 z m -92.74721,-2.60866 c 0.5225,-0.50475 1.985,-0.91773 3.25,-0.91773 1.265,0 2.3,-0.48032 2.3,-1.06739 0,-0.60573 -0.84931,-0.79782 -1.96368,-0.44414 -1.08002,0.34279 -4.34252,0.66956 -7.25,0.72616 -4.8831,0.0951 -6.7321,0.95496 -6.77101,3.14891 -0.0191,1.07611 9.13742,-0.1926 10.43469,-1.44581 z m 80.55,-0.86976 c 0,-1.21461 -2.75732,-2.07833 -4.5,-1.4096 -2.20769,0.84717 -1.82545,2.16889 0.75,2.59336 2.54328,0.41916 3.75,0.0382 3.75,-1.18376 z m -37.28571,-2.42892 c 0.26468,-0.26469 1.22475,-0.22102 2.13348,0.097 1.1573,0.40505 1.35268,0.25005 0.65223,-0.51745 -1.76134,-1.92994 -35.75371,-1.34492 -37.7483,0.64967 -0.54809,0.54809 6.13923,0.77978 16.78514,0.58153 9.73291,-0.18125 17.91276,-0.5461 18.17745,-0.81078 z M 293.69599,217.58982 c 23.38476,-9.32457 41.2285,-23.36287 53.36798,-41.98648 7.71009,-11.82832 9.4244,-16.82901 11.33317,-33.05915 2.46431,-20.95384 0.24328,-29.46097 -10.65383,-40.80684 -16.98541,-17.684911 -58.0723,-23.964611 -70.8407,-10.827271 -7.32678,7.53849 -9.53879,11.336661 -13.60442,23.359651 -2.57787,7.62333 -3.03081,11.81987 -2.87491,26.63586 0.0999,9.4912 0.73173,16.17815 2.07876,22 4.28528,18.52077 5.5502,26.02575 4.49974,26.69769 -0.67826,0.43386 0.13517,4.33097 2.33073,11.16645 1.85492,5.775 3.15762,11.06783 2.89487,11.76185 -0.26274,0.69402 -0.0709,2.26902 0.42624,3.5 0.49718,1.23098 1.16066,3.44373 1.47441,4.91721 l 0.57045,2.67906 6.74876,-1.92247 c 3.71181,-1.05735 9.22375,-2.90935 12.24875,-4.11556 z m 34.5,-12.82009 c 0.33992,-0.55 0.14148,-1 -0.44098,-1 -0.58246,0 -1.05902,0.45 -1.05902,1 0,0.55 0.19844,1 0.44098,1 0.24254,0 0.7191,-0.45 1.05902,-1 z m -68.81689,-44.1875 c -0.31922,-0.79773 -0.55618,-0.56078 -0.60416,0.60417 -0.0434,1.05416 0.19292,1.64479 0.52522,1.3125 0.33229,-0.3323 0.36781,-1.1948 0.0789,-1.91667 z m 120.16443,-13.974 c 0.84619,-4.6556 0.79241,-5.06658 -0.44208,-3.37833 -0.773,1.05715 -1.4116,3.29858 -1.41911,4.98096 -0.008,1.68238 -0.24521,4.18387 -0.52821,5.55887 -0.4821,2.34233 -0.45336,2.36248 0.45573,0.31946 0.53366,-1.1993 1.40382,-4.56573 1.93367,-7.48096 z m 0.15246,-10.27948 c 0,-1.89254 -0.45,-3.7191 -1,-4.05902 -0.60393,-0.37325 -1,0.98962 -1,3.44098 0,2.23246 0.45,4.05902 1,4.05902 0.55,0 1,-1.54844 1,-3.44098 z M 335.23711,71.836269 c -0.36254,-0.5866 -1.4201,-1.05222 -2.35014,-1.03473 -1.48465,0.0279 -1.45585,0.20969 0.23602,1.48967 2.05508,1.55476 3.20345,1.30764 2.11412,-0.45494 z m -8.54112,-3.06653 c -1.97586,-1.2769 -5.28917,-1.2769 -4.5,0 0.33992,0.55 1.82898,0.9931 3.30902,0.98468 2.10476,-0.012 2.36421,-0.22648 1.19098,-0.98468 z M 798.60163,477.74499 c -9.36639,-1.1077 -18.61721,-3.64307 -23.74056,-6.50656 -4.97203,-2.77892 -13.98943,-5.69529 -15.23314,-4.92664 -1.20887,0.74713 -23.25659,-12.86671 -27.16104,-16.77116 -0.974,-0.974 -2.4059,-1.7709 -3.18201,-1.7709 -0.7761,0 -2.5946,-1.40651 -4.04109,-3.12557 -1.4465,-1.71906 -2.79489,-2.95656 -2.99642,-2.75 -0.20153,0.20656 -1.53164,3.01592 -2.95581,6.24301 -2.29985,5.21136 -2.84132,5.7903 -4.84248,5.17757 -2.82619,-0.86535 -2.73397,-0.86867 -11.75309,0.42228 -6.58854,0.94305 -7.62153,0.87592 -8.5,-0.55237 -0.55,-0.89423 -2.14401,-3.09765 -3.54225,-4.89648 -1.39823,-1.79883 -3.37907,-5.12636 -4.40187,-7.39452 -1.0228,-2.26816 -2.18328,-4.12392 -2.57885,-4.12392 -0.39558,0 -1.78973,1.57193 -3.09813,3.49317 -1.30839,1.92124 -2.75943,3.49624 -3.22453,3.5 -0.4651,0.004 -2.07785,0.88425 -3.5839,1.95665 -1.58183,1.12636 -3.6054,1.72305 -4.79151,1.41288 -1.12928,-0.29532 -2.35559,-0.0477 -2.72512,0.55018 -0.39902,0.64564 -4.14323,1.08712 -9.21989,1.08712 -7.43039,0 -9.35119,-0.38801 -14.69098,-2.9676 -5.59744,-2.70407 -8.41092,-5.05444 -17.69508,-14.7824 -3.62787,-3.80128 -3.87207,-3.83924 -8.73773,-1.35802 -4.2301,2.15712 -17.60866,3.28479 -23.19154,1.9548 -1.93524,-0.46102 -6.49102,-1.27929 -10.12396,-1.81838 -3.63293,-0.53908 -7.25557,-1.22966 -8.05031,-1.53463 -1.52801,-0.58636 -4.83673,5.06574 -4.85302,8.29016 -0.0205,4.04718 -13.74803,14.21607 -19.1911,14.21607 -0.62851,0 -1.85318,0.60385 -2.72149,1.34188 -2.52802,2.14873 -15.10053,3.97172 -23.88462,3.46322 -6.42896,-0.37217 -9.37049,-1.10967 -14.50216,-3.63598 -3.54056,-1.74302 -6.91403,-3.16912 -7.49658,-3.16912 -2.14833,0 -5.02374,-5.44705 -4.45259,-8.43481 0.46098,-2.4115 0.27353,-2.78543 -1.12693,-2.24802 -2.71225,1.04078 -3.62717,-3.2005 -5.13394,-23.79921 -1.26018,-17.22755 -3.5059,-30.61837 -7.46594,-44.51796 -2.1866,-7.67486 -6.06946,-25.23367 -8.51369,-38.5 -1.41868,-7.7 -3.24067,-17.6 -4.04887,-22 -0.8082,-4.4 -2.14178,-12.5 -2.9635,-18 -0.82172,-5.5 -2.36978,-15.85 -3.44012,-23 -1.07034,-7.15 -2.22492,-15.025 -2.56574,-17.5 -0.34082,-2.475 -1.47354,-9.9 -2.51716,-16.5 -1.04361,-6.6 -3.0637,-19.875 -4.48908,-29.5 -2.77256,-18.72198 -5.97152,-33.68502 -7.62835,-35.68137 -0.62925,-0.75821 -0.74907,-3.74258 -0.31355,-7.80949 0.6182,-5.77262 1.03218,-6.75156 3.36538,-7.9581 1.82096,-0.94166 3.20294,-1.07221 4.37959,-0.41372 0.94551,0.52913 1.71911,0.64496 1.71911,0.25738 0,-1.98469 3.87046,3.18277 5.04143,6.73082 0.79835,2.41904 2.27299,4.51625 3.60104,5.12135 3.67555,1.67469 6.37092,10.61135 9.87861,32.75313 0.91487,5.775 2.2883,14.1 3.05206,18.5 2.31273,13.32352 6.07514,36.97619 8.90788,56 1.47416,9.9 3.37877,21.375 4.23247,25.5 1.94903,9.41749 8.14514,34.19197 8.68694,34.73377 0.22265,0.22264 1.23613,-0.0764 2.25219,-0.66463 4.09859,-2.37263 11.67304,-5.06914 14.23916,-5.06914 1.49928,0 3.59947,0.66069 4.66709,1.4682 1.06762,0.8075 2.52758,1.4825 3.24436,1.5 2.43973,0.0595 16.1575,11.00934 18.55979,14.8148 5.2429,8.3053 15.62563,31.8313 15.64314,35.44547 0.003,0.69934 0.65892,2.52295 1.45675,4.05246 0.79782,1.52952 1.16857,3.51584 0.8239,4.41405 -0.45265,1.17958 -0.25888,1.40579 0.69776,0.81456 0.8625,-0.53306 1.08507,-0.43124 0.63813,0.29193 -0.37748,0.61077 0.0171,2.79401 0.87683,4.85165 0.85973,2.05763 1.3437,4.31303 1.07549,5.01199 -0.26822,0.69896 -0.0267,1.55577 0.53683,1.90402 0.56347,0.34824 0.79557,1.22975 0.51576,1.95891 -0.47674,1.24238 1.98924,4.2192 2.7871,3.36446 0.66053,-0.70761 -2.20736,-18.27715 -3.81837,-23.3925 -0.86608,-2.75 -1.57956,-5.65893 -1.58552,-6.46429 -0.01,-1.28571 0.1569,-1.28571 1.36445,0 2.0142,2.14456 5.72014,15.38912 6.23406,22.2797 0.24461,3.27969 0.6444,6.28612 0.88843,6.68097 0.92628,1.49875 13.361,3.40043 22.00224,3.36487 9.47974,-0.039 15.5,-1.93711 15.5,-4.88693 0,-0.81088 -0.34015,-1.47432 -0.75589,-1.47432 -0.79977,0 -2.4145,-3.2912 -4.35471,-8.87591 -0.64506,-1.85675 -2.61612,-6.35675 -4.38014,-10 -3.01786,-6.23283 -5.1131,-12.21326 -12.30569,-35.12409 -4.57361,-14.56846 -7.49317,-28.64277 -6.75636,-32.5703 0.43041,-2.29426 0.26193,-3.4297 -0.50889,-3.4297 -0.63376,0 -0.91432,-0.62017 -0.62345,-1.37814 0.29086,-0.75798 0.15628,-1.77048 -0.29907,-2.25 -1.45724,-1.53461 -4.34501,-17.68336 -4.15667,-23.24464 0.10008,-2.95504 -0.33239,-5.99254 -0.96103,-6.75 -0.62865,-0.75747 -0.80779,-1.37722 -0.3981,-1.37722 0.40969,0 0.23527,-0.61406 -0.3876,-1.36457 -0.62288,-0.75052 -1.14682,-2.88802 -1.16432,-4.75 -0.0175,-1.86199 -0.2262,-7.43543 -0.46376,-12.38543 -0.40308,-8.39857 1.34562,-21.26116 3.46679,-25.5 0.97072,-1.93985 5.89962,-2.55324 6.56481,-0.81697 0.3525,0.9201 2.26408,1.24782 6.34344,1.0875 5.65895,-0.22241 5.93236,-0.11318 8.87145,3.54413 6.3557,7.90882 14.01915,26.25813 19.70658,47.18534 2.01791,7.425 4.09501,14.88195 4.61577,16.571 0.52076,1.68905 0.91638,4.61405 0.87916,6.5 -0.0657,3.3265 -0.0988,3.35427 -1.10943,0.929 -0.57296,-1.375 -1.5184,-3.625 -2.10098,-5 -0.58258,-1.375 -1.23771,-3.61687 -1.45585,-4.98194 -0.46293,-2.89702 -0.99659,-3.62086 -1.95957,-2.65788 -0.58174,0.58174 1.42752,11.65032 5.65277,31.13982 0.47695,2.2 0.65677,4.21197 0.39959,4.47104 -1.01173,1.01918 -2.22488,-2.66539 -3.90497,-11.86016 -2.11342,-11.56636 -3.67036,-15.77755 -5.83322,-15.77755 -0.89136,0 -1.63497,0.4875 -1.65246,1.08334 -0.0175,0.59583 -0.6925,0.20982 -1.5,-0.8578 -1.26495,-1.67241 -1.4682,-1.70965 -1.4682,-0.26905 0,0.94956 1.08027,1.94321 2.5,2.29954 2.53868,0.63716 3.34115,2.77275 1.47522,3.92595 -0.56362,0.34834 -0.90112,0.0937 -0.75,-0.56598 0.15113,-0.65963 -0.28772,-1.40558 -0.97522,-1.65766 -1.67521,-0.61425 -1.52583,2.43981 0.58748,12.0115 0.94756,4.29175 2.0673,7.45872 2.4883,7.03771 0.42101,-0.421 0.73284,0.79257 0.69296,2.69683 -0.12583,6.00839 1.17784,10.28109 4.08652,13.39338 1.91712,2.05131 2.78037,3.99115 2.70214,6.07206 -0.0632,1.68178 0.86829,5.89893 2.07002,9.37145 1.49001,4.30549 2.12915,8.34279 2.00947,12.69319 -0.0965,3.50874 0.28076,6.95388 0.83841,7.65587 0.55766,0.70199 1.31799,2.96384 1.68962,5.02634 0.37164,2.0625 1.10532,3.75 1.63039,3.75 0.52508,0 0.95469,1.24987 0.95469,2.77749 0,2.97616 2.4428,7.22251 4.15489,7.22251 0.67738,0 0.82356,-2.18503 0.41815,-6.25 -0.9906,-9.93249 -3.57713,-27.62945 -5.15203,-35.25 -0.79565,-3.85 -1.44088,-8.0125 -1.43383,-9.25 0.0135,-2.37205 1.84409,-3.13384 2.40299,-1 0.18007,0.6875 0.83064,2.82845 1.44571,4.75766 0.61507,1.92921 1.38595,6.87921 1.71305,11 0.32711,4.12079 1.42217,13.78463 2.43347,21.4752 1.07566,8.18 1.4873,14.6395 0.99191,15.56514 -1.17673,2.19874 3.25466,10.59069 9.78217,18.52502 7.30812,8.88318 9.08544,9.9377 13.58243,8.05873 3.77883,-1.57889 5.6863,-4.48537 8.70842,-13.26931 2.02868,-5.89646 1.74743,-7.86387 -2.37886,-16.64064 -1.35023,-2.87199 -4.59701,-10.3968 -7.21507,-16.7218 -2.61806,-6.325 -6.90679,-16.45 -9.53051,-22.5 -12.58907,-29.02892 -26.34182,-70.56128 -28.47746,-86 -0.38041,-2.75 -1.3296,-6.56137 -2.10932,-8.46972 -1.92819,-4.71921 -1.89123,-19.46014 0.0605,-24.12975 1.10084,-2.63384 1.20716,-3.89676 0.3963,-4.70762 -0.81086,-0.81086 -0.76474,-1.52193 0.17192,-2.65053 1.47166,-1.77325 4.16265,-2.0149 5.6685,-0.50905 0.71111,0.71111 1.03462,0.47724 1.03745,-0.75 0.002,-0.98083 -0.71025,-2.31554 -1.58334,-2.96601 -1.24195,-0.92528 -1.32461,-1.44928 -0.37982,-2.40762 0.85007,-0.86226 1.59026,-0.91638 2.5,-0.18279 0.71081,0.57318 2.76566,1.35723 4.56633,1.74233 1.80068,0.38511 4.50068,1.7255 6,2.97864 1.49933,1.25315 3.72686,2.59164 4.95007,2.97443 1.22321,0.38278 3.23169,2.13186 4.46328,3.88683 1.2316,1.75497 2.81993,3.64086 3.52963,4.19086 1.63791,1.26934 3.63089,7.833 2.08907,6.8801 -0.58601,-0.36217 -0.89458,-0.25814 -0.68573,0.23118 3.391,7.9448 4.34532,9.3039 6.30744,8.98275 2.45837,-0.40236 5.57229,1.03024 5.57229,2.5636 0,0.7168 -0.50706,0.66644 -1.48817,-0.14781 -1.20837,-1.00286 -1.60936,-0.91924 -2.13278,0.44477 -0.35454,0.92392 -0.13486,2.1896 0.48817,2.81263 0.62303,0.62303 1.13278,1.95728 1.13278,2.965 0,1.00773 1.0125,2.21528 2.25,2.68344 2.97442,1.12528 3.36012,0.59287 1.75,-2.41566 -0.73499,-1.37334 -1.03567,-2.79766 -0.66817,-3.16516 0.36749,-0.3675 0.79679,-0.48067 0.95399,-0.25151 3.6841,5.37066 7.39257,13.09463 10.62615,22.13205 4.98218,13.92451 10.75645,34.14974 11.56871,40.52109 1.17394,9.20824 1.62691,11.31507 2.33825,10.87544 0.39483,-0.24402 0.54926,1.32445 0.34317,3.4855 -0.2366,2.48095 0.21735,4.83275 1.2316,6.3807 1.78646,2.72648 2.11697,5.52189 0.65287,5.52189 -0.58496,0 -0.82092,8.01924 -0.61056,20.75 l 0.34288,20.75 3.66263,8.46029 c 3.75045,8.66313 5.44793,11.48359 6.36152,10.57001 0.28492,-0.28492 -0.23285,-1.34776 -1.1506,-2.36186 -1.56256,-1.7266 -1.54729,-1.95363 0.24019,-3.57127 1.25384,-1.13471 2.13548,-1.36071 2.56938,-0.65864 0.36331,0.58784 1.73874,0.79821 3.0565,0.46747 1.80566,-0.45319 3.06238,0.10023 5.10097,2.24633 1.65936,1.74685 2.46116,2.17118 2.07416,1.09767 -0.4556,-1.26381 -0.11635,-1.75 1.22111,-1.75 1.04055,0 2.09267,-0.92037 2.40131,-2.10062 0.71249,-2.72458 2.68394,-1.50552 2.68394,1.65964 0,4.81711 3.99144,1.26256 5.40008,-4.80902 0.60474,-2.60654 2.59992,-3.92249 2.59992,-1.71482 0,0.65149 0.83398,0.57382 2.25,-0.20956 1.2375,-0.6846 3.58448,-1.41151 5.21552,-1.61534 1.63104,-0.20383 3.65604,-0.72372 4.5,-1.15531 1.76206,-0.9011 4.03448,-0.32187 4.03448,1.02836 0,0.50417 -0.62252,0.91667 -1.38337,0.91667 -0.76085,0 -1.61872,0.9 -1.90638,2 -0.28766,1.1 -1.24014,2 -2.11663,2 -0.87649,0 -1.59362,0.46156 -1.59362,1.02568 0,0.57353 1.38676,0.30856 3.14577,-0.60106 2.86603,-1.48208 3.09113,-1.48437 2.53138,-0.0257 -0.37591,0.97962 -0.0917,1.60106 0.73226,1.60106 0.74066,0 2.0593,1.0125 2.93032,2.25 l 1.58368,2.25 0.66077,-2.27234 c 0.57913,-1.99158 1.09746,-2.19041 4.19526,-1.60926 1.94397,0.36469 4.70136,1.27197 6.12753,2.01618 1.42616,0.7442 3.17727,1.35587 3.89134,1.35926 0.71406,0.003 3.00156,0.82909 5.08333,1.83489 3.16038,1.52693 3.78503,1.5868 3.78503,0.36279 0,-0.80626 -0.825,-1.68167 -1.83334,-1.94536 -1.00833,-0.26366 -1.83333,-0.87692 -1.83333,-1.36277 0,-0.48585 -0.53788,-0.88337 -1.19528,-0.88337 -0.65741,0 -2.46378,-1.2153 -4.01417,-2.70067 -2.20318,-2.11077 -3.93308,-2.75185 -7.91984,-2.935 -3.54179,-0.16271 -5.65375,-0.82771 -6.90953,-2.17563 -2.55582,-2.74334 -0.66741,-4.43911 2.88146,-2.5875 1.46155,0.76256 3.45097,1.38925 4.42093,1.39264 1.70542,0.006 5.71403,1.86338 6.73643,3.12138 0.275,0.33837 1.5125,0.93119 2.75,1.31739 1.2375,0.38619 2.25,1.14714 2.25,1.69101 0,0.54386 1.96555,1.8583 4.36789,2.92097 4.90736,2.17076 7.13335,4.33537 6.12917,5.96016 -0.48098,0.77825 -1.0878,0.74986 -2.11025,-0.0987 -0.78933,-0.65508 -1.71621,-0.90999 -2.05975,-0.56645 -0.34353,0.34353 1.35484,2.38401 3.77417,4.5344 2.88089,2.56065 4.64294,3.51907 5.10638,2.77747 0.40592,-0.64956 -0.3402,-1.76811 -1.75,-2.62352 -1.35169,-0.82015 -2.45761,-1.86351 -2.45761,-2.31858 0,-0.45507 0.41157,-0.57304 0.91459,-0.26216 0.50302,0.31089 1.09251,0.0315 1.30997,-0.62089 0.21746,-0.65238 1.13086,-0.90391 2.02979,-0.55896 1.14458,0.43922 1.84086,2.452 2.32328,6.71604 0.5186,4.58382 1.17507,6.34907 2.65585,7.14155 1.67131,0.89446 1.86853,1.70912 1.31208,5.41981 -0.8126,5.41882 -3.1601,10.42401 -5.93359,12.65125 -2.88032,2.31303 -1.73121,3.15244 8.38803,6.12731 9.95115,2.92546 15.33286,4.06291 27.18458,5.74559 7.78053,1.10466 9.0594,1.59707 12.28513,4.73022 l 3.60054,3.49719 -2.28513,2.43243 c -2.14579,2.28412 -2.17842,2.51046 -0.53512,3.71208 0.9625,0.70381 1.75,1.50004 1.75,1.76939 0,0.26936 -2.8125,1.64457 -6.25,3.05603 -7.11354,2.92086 -17.50459,3.93182 -27.84436,2.70901 z M 533.35265,428.76122 c 4.35484,-1.00537 11.22846,-4.87258 11.30101,-6.35812 0.048,-0.98228 -0.65519,-0.78908 -10.70767,2.94202 -3.9875,1.48001 -7.25,3.08101 -7.25,3.55777 0,1.09415 1.43598,1.06359 6.65666,-0.14167 z m 230.12327,-2.34285 c 1.50747,-1.50746 1.34809,-1.88937 -2.11054,-5.05735 -8.5097,-7.79458 -21.66939,-11.20867 -21.66939,-5.62181 0,2.47097 5.5513,9.19249 9.32922,11.29584 3.86674,2.15281 12.02958,1.80446 14.45071,-0.61668 z m -96.69327,0.0696 c 1.79494,-1.37812 4.29047,-5.6744 3.66141,-6.30346 -0.22768,-0.22768 -1.86034,1.38586 -3.62814,3.58565 -3.15489,3.92584 -3.16958,5.12579 -0.0333,2.71781 z m 114.27497,-2.21824 c -0.62715,-1.63433 -2.36163,-2.06275 -2.36163,-0.58333 0,0.759 0.70084,1.27571 2.71862,2.00438 0.12023,0.0434 -0.0404,-0.59605 -0.35699,-1.42105 z m -105.36163,-1.37756 c 0,-0.48265 -0.58097,-1.35971 -1.29104,-1.94902 -0.97599,-0.81 -1.32686,-0.59585 -1.43785,0.87756 -0.0826,1.09643 0.48217,1.94902 1.29104,1.94902 0.79082,0 1.43785,-0.3949 1.43785,-0.87756 z m -128.62121,-4.37244 c 0.78369,-1.2375 1.72616,-3.69587 2.09439,-5.46304 0.78505,-3.76759 0.49015,-3.8846 -11.71233,-4.64734 -8.23237,-0.51458 -10.23843,0.37148 -7.25928,3.20634 1.29035,1.22785 1.85764,1.33196 2.20166,0.40404 0.77789,-2.09816 2.4758,-1.38943 1.79677,0.75 -0.45047,1.41932 -0.1797,2 0.93261,2 0.86207,0 1.56739,-0.675 1.56739,-1.5 0,-1.13333 1.22222,-1.5 5,-1.5 2.75,0 5,0.45 5,1 0,0.55 -0.45,1 -1,1 -0.55,0 -1,0.6895 -1,1.53222 0,0.84273 -1.0125,1.9392 -2.25,2.43662 -1.7239,0.69292 -1.84081,0.91921 -0.5,0.96777 0.9625,0.0349 1.75,0.51339 1.75,1.06339 0,1.77257 1.91278,1.06493 3.37879,-1.25 z m 124.99138,-9.96008 c -0.95297,-1.54192 -2.34292,1.28519 -2.31572,4.71008 l 0.0238,3 1.45603,-3.35331 c 0.80081,-1.84433 1.17695,-3.80487 0.83586,-4.35677 z m -146.37017,3.21008 c 0,-1.11111 -0.66667,-2 -1.5,-2 -1.80819,0 -1.93321,1.16679 -0.3,2.8 1.61379,1.61379 1.8,1.53102 1.8,-0.8 z m -1.28786,-6.37779 c 4.52146,-0.86229 10.58395,-1.18318 16.25,-0.86011 4.97082,0.28342 9.03786,0.24532 9.03786,-0.0847 0,-0.32999 -0.8978,-4.55491 -1.99511,-9.3887 -2.21323,-9.74954 -8.46364,-24.64562 -14.14024,-33.69923 -3.2389,-5.16569 -10.81652,-12.58947 -12.85039,-12.58947 -3.27388,0 -8.00855,14.9967 -8.0223,25.40996 -0.006,4.31241 3.86811,32.60412 4.46218,32.58886 0.0252,-6.5e-4 3.29132,-0.62012 7.258,-1.37661 z m 207.28786,-1.62221 c 0,-0.55 -0.19844,-1 -0.44098,-1 -0.24254,0 -0.7191,0.45 -1.05902,1 -0.33992,0.55 -0.14148,1 0.44098,1 0.58246,0 1.05902,-0.45 1.05902,-1 z m -43.17279,-32.5 c -0.50997,-7.15 -1.25196,-15.925 -1.64887,-19.5 -0.40284,-3.62846 -0.30785,-7.49836 0.21502,-8.75989 0.74464,-1.79656 0.45707,-2.77042 -1.40265,-4.75 -1.28664,-1.36956 -2.64277,-2.49011 -3.01364,-2.49011 -0.37086,0 -0.26224,2.5875 0.24139,5.75 0.50362,3.1625 0.65242,7.775 0.33067,10.25 -1.61752,12.44228 -1.55017,15.38156 0.47968,20.93487 1.94977,5.33423 5.1962,12.21666 5.55454,11.77565 0.0941,-0.11578 -0.24618,-6.06052 -0.75614,-13.21052 z m -139.00393,-8.01016 c -1.22085,-3.19028 -2.40782,-5.23622 -2.63771,-4.54656 -0.22989,0.68967 0.0283,2.22207 0.57371,3.40533 0.54543,1.18327 1.51457,3.44704 2.15365,5.03062 2.20623,5.46685 2.12389,1.89496 -0.0897,-3.88939 z m -38.82328,3.01016 c 0,-1.375 -0.3876,-2.5 -0.86133,-2.5 -0.47373,0 -0.64627,1.125 -0.38342,2.5 0.26285,1.375 0.65044,2.5 0.86133,2.5 0.21088,0 0.38342,-1.125 0.38342,-2.5 z m 101.35107,-12.5 c -0.2875,-2.475 -1.1114,-6.3 -1.83087,-8.5 -0.71948,-2.2 -1.81452,-7.825 -2.43343,-12.5 -1.0873,-8.21311 -8.36764,-39.6142 -9.43111,-40.67767 -0.28743,-0.28743 -0.94933,-0.25886 -1.4709,0.0635 -0.59601,0.36835 -0.58286,2.29949 0.0354,5.19823 0.64007,3.0011 0.64254,4.95328 0.007,5.58875 -1.00695,1.00695 -1.05491,0.82571 -3.30208,-12.47731 -0.63218,-3.74248 -1.35345,-6.6005 -1.6028,-6.35114 -0.72974,0.72974 1.65723,23.92117 2.58247,25.09092 0.4632,0.58561 1.38242,4.83669 2.04272,9.44685 0.6603,4.61016 1.56199,9.11016 2.00376,10 1.61567,3.25441 3.15934,9.12989 2.62559,9.99351 -0.3016,0.48801 0.54722,2.50172 1.88627,4.47492 1.33905,1.97321 2.75053,5.28905 3.13662,7.36855 0.38608,2.0795 1.35856,4.78994 2.16106,6.02319 0.80249,1.23325 1.20426,2.90634 0.89281,3.71797 -0.31146,0.81164 -0.13594,1.74167 0.39004,2.06674 0.52598,0.32508 1.01265,1.57699 1.0815,2.78203 0.0688,1.20504 0.49045,0.16598 0.93691,-2.30902 0.44645,-2.475 0.5765,-6.525 0.28899,-9 z m -14.35107,-40.91821 c 0,-0.50502 -0.30925,-1.74252 -0.68723,-2.75 -0.60496,-1.61251 -0.48525,-1.66749 1,-0.45935 1.8447,1.50054 2.28209,4.12756 0.68723,4.12756 -0.55,0 -1,-0.4132 -1,-0.91821 z m 21.68311,49.73071 c -0.31922,-0.79773 -0.55618,-0.56078 -0.60416,0.60417 -0.0434,1.05416 0.19293,1.64479 0.52522,1.3125 0.33229,-0.33229 0.36781,-1.1948 0.0789,-1.91667 z m -1.07218,-7.0625 c -1.14223,-1.83046 -2.61093,-2.3461 -2.61093,-0.91667 0,0.45834 0.3375,1.17084 0.75,1.58334 0.4125,0.4125 0.80625,1.1625 0.875,1.66666 0.41322,3.03027 0.59075,3.22421 1.29677,1.41667 0.44604,-1.14196 0.31269,-2.75078 -0.31084,-3.75 z m -105.69653,-1.25 c 0.0302,-0.55 -0.38124,-0.325 -0.9144,0.5 -0.53316,0.825 -0.94464,2.175 -0.9144,3 0.058,1.58385 1.72467,-1.60578 1.8288,-3.5 z m 84.74788,-4.75 c -0.27741,-0.6875 -0.50439,-0.125 -0.50439,1.25 0,1.375 0.22698,1.9375 0.50439,1.25 0.27741,-0.6875 0.27741,-1.8125 0,-2.5 z m -2.20499,-8.6809 c 0.31644,-0.512 0.11799,-1.21356 -0.44098,-1.55902 -0.55897,-0.34546 -1.01631,0.0734 -1.01631,0.9309 0,1.75653 0.60006,2.01516 1.45729,0.62812 z m 74.03437,-8.67213 c -0.85125,-3.79333 -1.94389,-7.79697 -2.42809,-8.89697 -1.5366,-3.49084 -4.12223,-11.90717 -4.45463,-14.5 -0.54096,-4.21974 -3.90431,-15.03796 -4.49242,-14.44985 -0.30492,0.30491 -1.08398,-1.60663 -1.73126,-4.24788 -1.6049,-6.54894 -6.05734,-18.16996 -8.14678,-21.26342 l -1.71484,-2.53885 -0.33858,2.30504 c -0.18623,1.26778 0.20106,2.95528 0.86062,3.75 1.46897,1.77 -0.12709,1.92614 -1.99286,0.19496 -1.10255,-1.02302 -1.22889,-0.91536 -0.69573,0.5929 0.35829,1.0136 0.90953,3.0386 1.22497,4.5 0.31544,1.46141 0.96586,3.5571 1.44537,4.6571 1.34786,3.09199 3.97257,11.44466 3.97257,12.64198 0,0.58965 1.31074,3.83642 2.91276,7.21505 1.60202,3.37863 4.70744,10.64297 6.90094,16.14297 5.52386,13.85061 9.18351,21.83612 9.74836,21.27128 0.26253,-0.26254 -0.21915,-3.58097 -1.0704,-7.37431 z m -148.49166,5.16205 c 0,-0.24254 -0.45,-0.7191 -1,-1.05902 -0.55,-0.33992 -1,-0.14148 -1,0.44098 0,0.58246 0.45,1.05902 1,1.05902 0.55,0 1,-0.19844 1,-0.44098 z m -6,-4.55902 c 1.21948,-0.78809 1.09025,-0.97224 -0.69098,-0.98469 -1.20504,-0.008 -2.4691,0.43469 -2.80902,0.98469 -0.78687,1.27319 1.52988,1.27319 3.5,0 z m 81,-0.5 c 0,-0.825 -0.17686,-1.5 -0.39301,-1.5 -0.21616,0 -0.65203,0.675 -0.96862,1.5 -0.31658,0.825 -0.13972,1.5 0.39301,1.5 0.53274,0 0.96862,-0.675 0.96862,-1.5 z m 83.12409,-3.76667 c -0.98762,-0.98026 -1.10248,-0.8654 -0.5598,0.5598 0.37553,0.98622 0.93469,1.54122 1.24258,1.23333 0.30789,-0.30789 6.4e-4,-1.11479 -0.68278,-1.79313 z m 3.50464,-2.87479 c -1.26419,-2.89704 -1.47679,-3.04033 -1.54716,-1.0428 -0.0945,2.68132 2.06887,7.23295 2.63314,5.54013 0.20878,-0.62634 -0.27991,-2.65014 -1.08598,-4.49733 z m -87.94562,0.95396 c -0.31922,-0.79773 -0.55618,-0.56078 -0.60416,0.60417 -0.0434,1.05416 0.19293,1.64479 0.52522,1.3125 0.33229,-0.33229 0.36781,-1.1948 0.0789,-1.91667 z m 78,-4 c -0.31922,-0.79773 -0.55618,-0.56078 -0.60416,0.60417 -0.0434,1.05416 0.19293,1.64479 0.52522,1.3125 0.33229,-0.33229 0.36781,-1.1948 0.0789,-1.91667 z m -79.68311,-2.3125 c 0,-2.32154 -1.6024,-4.23094 -2.66169,-3.17164 -0.29075,0.29074 -0.22419,1.91473 0.1479,3.60886 0.76584,3.48683 2.51379,3.18281 2.51379,-0.43722 z m 89.83165,-6.84121 c -1.13509,-5.32208 -2.38625,-6.42861 -1.41501,-1.25143 0.37004,1.97246 0.21709,3.55164 -0.36319,3.75 -0.55133,0.18845 -0.74063,1.33902 -0.42067,2.55681 0.47856,1.82143 0.81328,1.98262 1.88712,0.90879 1.0003,-1.0003 1.07316,-2.39419 0.31175,-5.96417 z m -11.14854,4.15371 c -0.31922,-0.79773 -0.55618,-0.56078 -0.60416,0.60417 -0.0434,1.05416 0.19293,1.64479 0.52522,1.3125 0.33229,-0.33229 0.36781,-1.1948 0.0789,-1.91667 z m 7.31689,-11.84388 c 0,-1.77208 -0.62314,-3.27051 -1.5,-3.60699 -1.04328,-0.40035 -1.5,-2.02816 -1.5,-5.34617 0,-2.9457 -0.55422,-5.23054 -1.44885,-5.97301 -0.79686,-0.66134 -1.97044,-2.78287 -2.60793,-4.71451 -0.77848,-2.35879 -1.48993,-3.18123 -2.16659,-2.50457 -0.67666,0.67666 -0.47703,2.07083 0.60794,4.2457 0.88849,1.78101 1.61543,4.07517 1.61543,5.09814 0,1.79791 0.37141,2.78645 2.84387,7.56922 0.63587,1.23004 1.15613,3.29254 1.15613,4.58333 0,1.2908 0.3,2.64691 0.66667,3.01357 1.43774,1.43774 2.33333,0.53011 2.33333,-2.36471 z m -89,0.47236 c 0,-0.85746 -0.45,-1.2809 -1,-0.94098 -0.55,0.33992 -1,1.04148 -1,1.55902 0,0.51754 0.45,0.94098 1,0.94098 0.55,0 1,-0.70156 1,-1.55902 z m 79.04715,-4.79383 c -1.55389,-1.55389 -2.22247,-0.19388 -1.4391,2.92734 l 0.70539,2.81049 0.87376,-2.362 c 0.54071,-1.46168 0.48733,-2.74845 -0.14005,-3.37583 z m -56.86382,-1.86382 c -0.71756,-0.71756 -1.18333,-0.7766 -1.18333,-0.15 0,1.33478 1.18261,2.51739 1.85,1.85 0.28417,-0.28416 -0.0158,-1.04916 -0.66667,-1.7 z m -1.18333,-5.13411 c 0,-2.59957 -2.20308,-7.64174 -3.09741,-7.08902 -1.28896,0.79662 -1.11452,4.12759 0.33796,6.45337 1.43071,2.29093 2.75945,2.59701 2.75945,0.63565 z m 3.19585,-2.39922 c -0.28974,-1.5125 -0.71979,-2.17265 -0.95566,-1.46701 -0.42534,1.2725 0.33557,4.21701 1.08975,4.21701 0.216,0 0.15565,-1.2375 -0.13409,-2.75 z m -28.17004,-3.25678 -0.82109,-3.49322 -0.10236,3.08333 c -0.0563,1.69584 0.19764,3.38334 0.56431,3.75 1.12577,1.12577 1.21462,0.29945 0.35914,-3.34011 z m 26.40117,-5.13443 c -0.78484,-1.51771 -1.42698,-3.65526 -1.42698,-4.75011 0,-1.09486 -0.45,-2.26876 -1,-2.60868 -1.2566,-0.77662 -1.2928,1.68332 -0.0692,4.70295 0.51194,1.26338 1.21786,3.62358 1.56871,5.2449 0.47017,2.17269 0.8636,2.58267 1.49619,1.55913 0.52392,-0.84773 0.30238,-2.46368 -0.56871,-4.14819 z m -28.48485,-6.23061 c -0.93774,-0.8713 -1.0725,-0.55894 -0.59183,1.37182 0.34232,1.375 0.69596,3.175 0.78588,4 0.0899,0.825 0.35624,0.20768 0.59183,-1.37182 0.23559,-1.5795 -0.11805,-3.3795 -0.78588,-4 z m 24.04256,5.62182 c -0.008,-0.4125 -0.45153,-1.425 -0.98469,-2.25 -0.78387,-1.21296 -0.9723,-1.06944 -0.98469,0.75 -0.008,1.2375 0.43469,2.25 0.98469,2.25 0.55,0 0.99311,-0.3375 0.98469,-0.75 z m -16.30158,-4.4375 c -0.31922,-0.79773 -0.55618,-0.56078 -0.60416,0.60417 -0.0434,1.05416 0.19293,1.64479 0.52522,1.3125 0.33229,-0.33229 0.36781,-1.1948 0.0789,-1.91667 z m 15.8926,-10.26065 c -0.35579,-1.89648 -2.22113,-6.73398 -4.14522,-10.75 -3.83284,-8.00005 -3.76265,-7.49828 0.76211,5.44815 3.19536,9.14268 4.48189,11.15887 3.38311,5.30185 z m 52.54838,1.18148 c -0.98762,-0.98026 -1.10248,-0.8654 -0.5598,0.5598 0.37553,0.98622 0.93469,1.54122 1.24258,1.23333 0.30789,-0.30789 6.4e-4,-1.11479 -0.68278,-1.79313 z m -2.94076,-5.95 c -0.71756,-0.71756 -1.18333,-0.7766 -1.18333,-0.15 0,1.33478 1.18261,2.51739 1.85,1.85 0.28417,-0.28416 -0.0158,-1.04916 -0.66667,-1.7 z m -1.83825,-3.32646 c -0.32569,-0.84872 -0.80663,-1.32866 -1.06875,-1.06653 -0.26213,0.26213 -0.17998,0.95654 0.18255,1.54313 0.98605,1.59546 1.56238,1.28551 0.8862,-0.4766 z m -20.84508,-0.45687 c -0.33992,-0.55 -1.06803,-1 -1.61803,-1 -0.55,0 -0.72189,0.45 -0.38197,1 0.33992,0.55 1.06803,1 1.61803,1 0.55,0 0.72189,-0.45 0.38197,-1 z m 13.68333,-11.21667 c -0.71756,-0.71756 -1.18333,-0.7766 -1.18333,-0.15 0,1.33478 1.18261,2.51739 1.85,1.85 0.28417,-0.28416 -0.0158,-1.04916 -0.66667,-1.7 z m -13.54345,-19.57202 c -2.29061,-2.29061 -3.12902,-0.80545 -0.96926,1.71696 1.05593,1.23325 1.97003,1.64977 2.18767,0.99685 0.20562,-0.61685 -0.34267,-1.83807 -1.21841,-2.71381 z m -5.63988,-1.32934 c 0,-0.55 -0.45,-0.72189 -1,-0.38197 -0.55,0.33992 -1,1.06803 -1,1.61803 0,0.55 0.45,0.72189 1,0.38197 0.55,-0.33992 1,-1.06803 1,-1.61803 z m -157,-1.32295 c 0,-0.79254 -0.45,-1.7191 -1,-2.05902 -0.55,-0.33992 -1,0.30852 -1,1.44098 0,1.13246 0.45,2.05902 1,2.05902 0.55,0 1,-0.64844 1,-1.44098 z M 629.77494,381.1864 c 0.048,-1.16495 0.28494,-1.4019 0.60416,-0.60417 0.28887,0.72187 0.25335,1.58438 -0.0789,1.91667 -0.33229,0.33229 -0.56864,-0.25834 -0.52522,-1.3125 z m -2.07895,-3.15765 c 0,-1.02246 -0.55874,-2.41776 -1.24164,-3.10066 -0.98886,-0.98886 -0.94333,-1.42601 0.22361,-2.14721 0.94703,-0.5853 1.73442,-0.48216 2.22632,0.29164 1.0922,1.71806 0.96604,5.47143 -0.20829,6.19721 -0.55,0.33992 -1,-0.21852 -1,-1.24098 z M 1228.325,351.64894 c -3.5135,-3.82131 -3.6677,-4.28273 -3.3472,-10.01537 0.2142,-3.83139 0.8583,-6.34555 1.7771,-6.93667 1.2478,-0.80272 1.2399,-1.05934 -0.059,-1.91186 -0.825,-0.54158 -2.0062,-0.99158 -2.625,-1 -0.6187,-0.008 -1.125,-1.16679 -1.125,-2.57416 0,-3.42331 2.9143,-5.08025 10.25,-5.82779 8.8773,-0.90463 14.8616,1.08995 21.25,7.08266 5.2462,4.92119 5.25,4.92937 5.25,11.16405 0,6.81328 -1.8648,11.64487 -4.8617,12.59603 -1.036,0.32881 -6.5957,0.78484 -12.3549,1.0134 l -10.4714,0.41557 z m 264.0106,2.42694 c -1.2362,-1.23621 -0.6227,-4.30615 0.8605,-4.30615 0.825,0 1.5,0.87344 1.5,1.94098 0,2.08723 -1.3179,3.40776 -2.3605,2.36517 z m -868.97294,-1.97282 c -0.98484,-0.98483 -0.80994,-4.33333 0.22634,-4.33333 0.89317,0 2.10699,2.35148 2.10699,4.08179 0,1.06943 -1.36797,1.21691 -2.33333,0.25154 z m 2.59599,-18.4039 c -0.0862,-2.16119 0.26946,-3.92943 0.79032,-3.92943 1.13987,0 1.28178,6.67507 0.1567,7.37041 -0.43468,0.26865 -0.86084,-1.2798 -0.94702,-3.44098 z m -1.44824,-5.47868 c -1.1925,-2.05488 -1.87748,-8.45075 -0.90505,-8.45075 0.55,0 1.29094,1.55085 1.64654,3.44633 0.673,3.58742 0.21806,6.65787 -0.74149,5.00442 z m 368.71375,-4.95075 c 0.35,-2.75 1.1069,-5.45 1.682,-6 1.3307,-1.27266 0.1738,7.09129 -1.3007,9.40388 -0.7263,1.13921 -0.8355,0.1648 -0.3813,-3.40388 z m 7.13384,-1.68479 c -0.65044,-2.48723 0.048,-4.1123 1.4072,-3.2725 1.1832,0.73128 1.2145,4.16394 0.045,4.88703 -0.4875,0.30127 -1.1408,-0.42527 -1.4518,-1.61453 z m -3.58304,-13.39854 c 0.048,-1.16495 0.285,-1.4019 0.6042,-0.60417 0.2888,0.72187 0.2533,1.58438 -0.079,1.91667 -0.3323,0.33229 -0.5687,-0.25834 -0.5252,-1.3125 z m 366.93114,-0.30907 c -1.9443,-0.54117 -2.6327,-1.56022 -3.1413,-4.65032 -0.3582,-2.1765 -0.2912,-4.6386 0.1489,-5.47132 0.4401,-0.83273 0.8015,-2.63273 0.803,-4 0.01,-6.66329 4.022,-13.54532 8.25,-14.1427 1.8953,-0.2678 2.5006,0.15831 2.7531,1.93823 0.2845,2.00563 0.7257,2.20607 3.6486,1.65772 2.5971,-0.4872 3.5481,-0.22525 4.3437,1.19646 0.6214,1.11047 2.2926,1.8843 4.286,1.98455 1.797,0.0904 3.7963,0.8878 4.4429,1.77205 0.6466,0.88425 1.6885,1.60773 2.3153,1.60773 1.6257,0 1.3818,1.13371 -0.8602,4 -2.3475,3.00111 -2.5474,5 -0.5,5 0.825,0 1.5,0.28438 1.5,0.63197 0,1.01575 -4.2948,7.79853 -5.4472,8.60272 -1.3112,0.915 -19.1603,0.81437 -22.5428,-0.12709 z m 20.99,-14.20357 c 0,-0.9823 -0.45,-2.06411 -1,-2.40403 -0.55,-0.33992 -1,0.0835 -1,0.94098 0,2.1102 -1.1924,1.96005 -3.8114,-0.47994 -2.2814,-2.12544 -3.1252,-1.31066 -0.9386,0.90628 1.0019,1.01576 0.8647,1.55171 -0.6911,2.7 -1.8556,1.36953 -1.8225,1.43268 0.75,1.43268 1.4801,0 2.6911,0.51974 2.6911,1.15499 0,0.65499 0.8658,0.37144 2,-0.65499 1.1,-0.99549 2,-2.61367 2,-3.59597 z m -11,-1.90403 c 0,-0.55 -0.45,-1 -1,-1 -0.55,0 -1,0.45 -1,1 0,0.55 0.45,1 1,1 0.55,0 1,-0.45 1,-1 z m -360.2688,11.91984 c 0.3536,-1.3522 0.8069,-1.8055 1.0565,-1.05655 0.2405,0.72144 -0.038,1.78716 -0.6193,2.36826 -0.7421,0.74207 -0.8722,0.35164 -0.4372,-1.31171 z m -0.6316,-22.08651 c 0.1264,-4.22567 1.3259,-8.62226 1.9979,-7.32325 1.0349,2.00026 0.388,9.80887 -0.8475,10.23025 -0.8469,0.28883 -1.2179,-0.64875 -1.1504,-2.907 z m -970.099706,-40.25 c 0,-32.95288 0.26338,-41.66326 1.25,-41.33834 1.46622,0.48288 2.3261,4.75501 0.95706,4.75501 -0.51262,0 -0.73613,1.2375 -0.49669,2.75 1.04938,6.62863 -0.0754,73.94832 -1.25519,75.12815 -0.25035,0.25035 -0.45518,-18.33232 -0.45518,-41.29482 z m 826.669926,30.0357 c -2.0266,-3.09296 -2.042,-3.38986 -0.2677,-5.16413 1.203,-1.20299 1.614,-1.07914 2.8921,0.87161 1.2112,1.84849 1.2613,2.70104 0.2677,4.55751 l -1.2221,2.28366 z m -0.5233,-18.11903 c -0.01,-4.18501 0.1591,-4.64778 1.0341,-2.83913 0.7225,1.49352 0.726,3.03768 0.011,5 -0.9539,2.61902 -1.035,2.45149 -1.0454,-2.16087 z M 657.15487,252.7032 c -0.36253,-0.58659 -0.44468,-1.281 -0.18255,-1.54313 0.26212,-0.26213 0.74306,0.21781 1.06875,1.06653 0.67618,1.76211 0.0998,2.07206 -0.8862,0.4766 z m 210.95555,-13.07191 c -0.6973,-1.12824 -1.15,-6.98485 -1.883,-24.36156 -0.3618,-8.57731 -0.3181,-8.80832 0.9321,-4.91872 1.2124,3.77214 3.0324,30.41872 2.0776,30.41872 -0.2327,0 -0.7397,-0.5123 -1.1267,-1.13844 z m -2.6141,-39.76863 c -0.2568,-1.74954 -0.1243,-3.39271 0.2944,-3.65148 1.2326,-0.76178 2.1105,3.36935 1.0998,5.17533 -0.752,1.34376 -1.0156,1.05559 -1.3942,-1.52385 z M 42.695994,196.21071 c 0,-0.85746 0.45734,-1.27636 1.01631,-0.9309 0.55897,0.34546 0.75741,1.04702 0.44098,1.55902 -0.85724,1.38704 -1.45729,1.12841 -1.45729,-0.62812 z m 0.0296,-34.01102 c -0.0664,-31.10134 0.1628,-32.82622 3.50323,-26.36655 1.43868,2.78211 1.412,2.93659 -0.50711,2.93659 -1.11413,0 -2.02568,0.45 -2.02568,1 0,0.55 0.9,1 2,1 2.42971,0 2.4896,1.15114 0.35116,6.75056 -1.40543,3.68007 -1.46101,4.88658 -0.37646,8.17278 0.84402,2.55741 1.05031,6.16507 0.61274,10.71601 -0.3628,3.77336 -0.6764,11.24815 -0.69689,16.61065 -0.029,7.6026 -0.34103,9.75 -1.4165,9.75 -1.14082,0 -1.39052,-5.28441 -1.44449,-30.57004 z m 821.529766,-5.67996 c -1.2359,-4.08758 -2.3888,-10.25382 -1.9916,-10.65106 1.0535,-1.05351 2.27,1.71333 2.9243,6.65106 0.6237,4.70742 0.039,7.21452 -0.9327,4 z m -2.4804,-13.33333 c 0.048,-1.16495 0.285,-1.4019 0.6042,-0.60417 0.2888,0.72187 0.2533,1.58437 -0.079,1.91667 -0.3323,0.33229 -0.5687,-0.25834 -0.5252,-1.3125 z M 45.195994,122.76973 c -0.33992,-0.55 -0.14148,-1 0.44098,-1 0.58246,0 1.05902,0.45 1.05902,1 0,0.55 -0.19845,1 -0.44099,1 -0.24254,0 -0.7191,-0.45 -1.05901,-1 z m -0.5,-16 c 0,-0.55 0.45,-1 1,-1 0.55,0 1,0.45 1,1 0,0.55 -0.45,1 -1,1 -0.55,0 -1,-0.45 -1,-1 z m -0.8,-10.200001 c -0.66,-0.66 -1.2,-2.01382 -1.2,-3.00848 0,-1.55815 0.27683,-1.63558 2,-0.55945 1.1,0.68696 2,2.04077 2,3.00847 0,2.04548 -1.09516,2.2643 -2.8,0.55946 z m 0.3,-10.56532 c -1.47627,-1.08459 -1.48033,-4.23468 -0.005,-4.23468 0.69977,0 1.48737,1.125 1.75022,2.5 0.48951,2.56073 0.0179,3.02966 -1.74475,1.73468 z m -1.25047,-6.48468 c 0.22891,-0.6875 1.16483,-1.3952 2.07983,-1.57265 1.16012,-0.225 1.48098,0.15331 1.06014,1.25 -0.70939,1.84864 -3.75217,2.16131 -3.13997,0.32265 z m -0.24953,-41.809016 c 0,-0.58246 0.45,-0.7809 1,-0.44098 0.55,0.33991 1,0.81647 1,1.05901 0,0.24254 -0.45,0.44099 -1,0.44099 -0.55,0 -1,-0.47656 -1,-1.05902 z m 0,-4 c 0,-0.58246 0.45,-0.7809 1,-0.44098 0.55,0.33991 1,0.81647 1,1.05901 0,0.24254 -0.45,0.44099 -1,0.44099 -0.55,0 -1,-0.47656 -1,-1.05902 z"
       id="path1" />
  </g>
</svg>
